<?xml version="1.0" encoding="UTF-8"?>
<svg id="Layer_2" data-name="Layer 2" xmlns="http://www.w3.org/2000/svg" version="1.1" viewBox="0 0 1000 1000">
  <defs>
    <style>
      .cls-1 {
        fill: #ad916a;
        stroke-width: 0px;
      }
    </style>
  </defs>
  <g id="Layer_1" data-name="Layer 1">
    <g>
      <path class="cls-1" d="M676.7,446.7l13-4.2s2.1-21.2-18.5-44.6l18.6-6.1v-13.4c0-20.8-43.9-42.4-47.4-44.2l47.4-15.6c0-6-2.8-11.8-8.4-14l-186.9-61.3-183.3,60.1c-.5.1-.9.6-.9,1.1,0,5.7,3.7,10.7,8.9,13l36.5,12c-45.4,19-45.4,38.8-45.4,38.8v23.4l11.9,3.9c-12.2,16.3-11.7,31.5-11.8,34.7-.1,3.7,9.7,11.4,9.7,11.4-11,23.1-9.7,50.5-9.7,50.5.1,2.2,4.4,6.3,4.4,6.3-3.8,24.5-4.4,47.2-4.5,53.7,0,1.2.3,2.5.9,3.6,4.2,7.5,11.1,10.5,11.1,10.5,0,0,180.2,59.1,183.8,60.2l183.8-60.2c0-37.6-5.4-60.2-5.4-60.2l5.3-1.7c0,0,1.6-31.3-13-57.6h0ZM676.9,483.8c-1.2-2.7-2.6-5.2-4-7.7-4.8-8.2-10.7-15.7-17.5-22.4l14.8-4.9c4.3,11.3,6.1,22.9,6.7,35ZM359.6,454.7l146.4,47.9,145.5-47.7c15.2,13.5,20.1,38.6,20.1,38.6l-177.3,58.1-163.8-53.7c5.2-16.8,13.7-30.9,29.2-43.3h0ZM329.8,460.6c1.7-4.7,3.9-9.3,6.4-13.7l4.1,1.4c-3.9,3.8-7.4,7.9-10.5,12.3ZM500,453.9c2.4-.8,96.2-31.5,96.5-31.6,0,0,29.2,15.4,38.8,21.2,0,0-101,33.1-132,43.3-5.4,1.8-8.7,2.9-9,2.9,0,0-126-41.3-126.1-41.3,13.5-9,28.1-16.1,42.4-23.8.2,0,88.1,28.8,89.4,29.2h0ZM415.8,388.7c1.6-.9,3.2-1.6,4.8-2.5,12.8-6.9,24.9-14.7,36.6-23.4l7.2,2.4c-10.5,10.5-22.2,19.9-34.6,28.2,0,0-2.5-.9-5.4-1.8-3.9-1.4-8.6-2.9-8.6-2.9h0ZM604.6,419.6s29.7-9.7,30.5-10h0s20,11.3,27.8,24.8l-21.9,7.2c-7.9-6.9-36.4-21.9-36.4-21.9h0ZM632,373.3c-4.2,1.4-31.7,10.4-31.7,10.4-18.9-8.7-40.4-22.6-40.4-22.6l28.8-9.5s39.7,19,43.9,21.4c0,0-.2,0-.6.2h0ZM591.7,386.4s-.4.1-1.1.4c-5.3,1.7-27.5,9-27.5,9-16.7-10.5-32-25.3-32-25.3l23-7.5c0,0,20.6,14.8,37.6,23.4h0ZM557.4,397.7s-17.6,5.7-33.2,10.9c-12.5,4.2-23.9,7.8-23.9,7.8l-50-16.4c11.7-8.5,22.7-18,32.7-28.8l23,7.5,21.3-7s14.7,14.8,30.1,25.9h0ZM471,358.2c-.3,0-5.6-1.8-5.6-1.8,6.7-5.4,13.3-11,19.7-17.1,1-1,2.1-1.9,3.1-2.9-4.6,7.2-11.4,15.5-17.2,21.9h0ZM472.3,327.2c-8.5,8-17.5,15.6-26.9,22.6-.3-.1-11.8-3.9-11.8-3.9,13.3-7.6,26.2-16.4,38.7-25.2,4.1-2.9,8.2-5.7,12.2-8.7,2.7-1.9,5.2-3.8,7.9-5.7-6.1,7.4-13,14.3-20.1,20.9h0ZM411.6,338.7s-14.3-4.7-19.4-6.4c-1.1-.4-1.9-.6-1.9-.6,0,0,25.1-8.4,104.1-50.7v2.3c-46.2,35.9-82.8,55.3-82.8,55.3h0ZM423.2,351.6l13.6,4.4c-7.5,5.2-15.1,10-23,14.5-6.7,3.8-13.6,7.3-20.5,10.8,0,0-1.6-.6-3.9-1.3-5.4-1.8-14.3-4.7-14.3-4.7,2.3-1.3,4.7-2.5,6.9-3.7,13.5-7.2,27.7-13.1,41.3-20h0ZM388.3,417.3c-11.1,5.8-22.1,11.8-32.6,18.7-.5.4-1.1.7-1.6,1.1-2.1,1.5-4.2,3-6.2,4.7l-6.7-2.2c8.3-11.3,19.3-20.1,31.1-27.4,0,0,16.1,5.2,16.1,5.2h0ZM676.9,429.8l-9.3,3.1c-9-12.6-26.4-25.2-26.4-25.2,0,0,8.5-2.8,15.7-5.2,5.4-1.8,10.2-3.4,10.2-3.4,11.3,16,9.8,30.7,9.8,30.7h0ZM672.7,359.6l.2.2-33.5,11c-14.5-10-38.8-20.9-41.6-22.1l35.2-11.5c27.2,12.4,38,21.1,39.6,22.5ZM506,256.2l161.4,52.9-45.7,15c-56.9-22.7-115.7-56-115.7-56v-11.9h0ZM506,275.4s9.4,5.2,22.9,12.3c24.6,13,62.8,32.8,82.3,39.8l-34,11.2c-18.7-8.7-71.2-47-71.2-47v-16.3h0ZM506,297.1s6,4.5,14.6,10.7c14.8,10.7,37.1,26.6,49.1,33.3,0,0-25.2,8.2-26.2,8.6-16.8-11.9-37.6-34.5-37.6-34.5v-18.1h0ZM506,320.4s14.2,16,33,30.8l-19.6,6.4c-5.7-5.8-10-12.9-12.3-20.7-.9-2.9-1.2-5.9-1.2-8.8v-7.7h0ZM499.8,349.8c1.3-2,2.7-4.1,3.8-6.2,1.1,1.5,2.1,3,3.2,4.5,2.7,3.7,5.6,7.2,8.5,10.7l-21.1,7-5.2-1.7c3.9-4.5,7.5-9.2,10.7-14.3h0ZM332.9,313l161.3-52.8v2.4c-79,42.6-127.4,61.6-127.4,61.6l-33.9-11.2h0ZM346.3,354c10.2-6.4,21.1-11.9,32.2-17l22,7.2c-15,7.2-30.3,13.9-44.5,22.4-.9.5-1.7,1.1-2.7,1.6l-18.5-6.1c3.6-3,7.5-5.7,11.5-8.2h0ZM339.9,401.5l11.4,3.7c-8.6,6.2-16.4,13.3-22.7,21.9-1.6,2.2-3.1,4.4-4.4,6.8l-.6-.2c1.9-12.5,8-23.2,16.3-32.2h0ZM676.8,553.7s-2.6.9-7,2.3c-33.5,11-175.4,57.5-175.4,57.5h0c-4.2-1.4-171.3-56.1-171.3-56.1.2-17.1,1.2-34.5,5.2-51.2l177.8,58.3,168.5-55.2s3.7,32.1,2.3,44.4h0Z"/>
      <path class="cls-1" d="M485.2,755.1v-64.7h-17.1v53.2h-144.3l-13.5,9.6v2h174.9Z"/>
      <path class="cls-1" d="M515.5,724.6c0,14.1-5.7,22.2-15.8,22.2s-7.5-1.1-10.7-2.9l-1.1,1.3c5.9,7.4,14.1,11.6,22.6,11.6s22.1-7.3,22.1-23.6v-42.7h-17.1v34.2h0Z"/>
      <path class="cls-1" d="M537.4,661.5c-.5-.2-1.1-.4-1.7-.4h-.5c0,0,.1-.6.1-.6.3-1,.4-2.1.4-3.2,0-8-3.4-10.8-6.3-10.8-4.7,0-10.2,4.5-10.2,10.4s2.7,6.5,9.1,7.7l1.1.2-.9.6c-4.2,3.2-11,6-18.1,8.9l-1.4.5,1.4.4c1.6.4,4.4.6,5.9.7h.1c2.9-1.1,11.5-4.2,16.1-10.1l.2-.3h.3c.4.3.9.4,1.3.6h.4c0,.1,3.2-4.2,3.2-4.2l-.5-.4h0ZM533,658.7c0,.5,0,1.1-.3,1.6v.4c-.1,0-.6,0-.6,0-8.5-1.7-10.2-4.4-10.2-6.4s2.5-3.7,5-3.7c2.8,0,5.9,3.6,6,8.3h0Z"/>
      <path class="cls-1" d="M647.1,690.4l-14.6,14.8,14.6,14.8,14.6-14.8-14.6-14.8Z"/>
      <path class="cls-1" d="M663.1,661.4c-.5-.2-1.1-.4-1.7-.4h-.5c0,0,.1-.6.1-.6.3-1,.4-2.1.4-3.2,0-8-3.4-10.8-6.3-10.8-4.7,0-10.2,4.5-10.2,10.4s2.7,6.5,9.1,7.7l1.1.2-.9.6c-4.2,3.2-11,6-18.1,8.9l-1.4.5,1.4.4c1.6.4,4.4.6,5.9.7h.1c2.9-1.1,11.5-4.2,16.1-10.1l.2-.3h.3c.4.2.9.4,1.3.6h.4c0,.1,3.2-4.2,3.2-4.2l-.5-.3h0ZM658.7,658.6c0,.5,0,1.1-.3,1.6v.4c-.1,0-.6,0-.6,0-8.5-1.7-10.2-4.4-10.2-6.4s2.5-3.7,5-3.7c2.8,0,5.9,3.6,6,8.3h0Z"/>
      <path class="cls-1" d="M689.7,755.1v-64.7h-17.1v53.2h-96.7c1.1-2.9,1.9-6.4,1.9-10.5v-42.7h-17.1v34.1c0,14.1-5.7,22.2-15.8,22.2s-7.5-1.1-10.7-2.9l-1.1,1.4c5.9,7.4,14.1,11.6,22.6,11.6s14.9-3.4,19-10.7l11.3,9h103.7Z"/>
      <path class="cls-1" d="M393.8,701.1c11.3,0,20.8,4.7,25.9,13,4.5,7.2,5.2,15.9,1.9,24.7l-.3.9,1,.6.6-.4c13.5-8.4,16.2-21.5,14.4-30.1-2.6-12.3-13.3-20.1-27.2-20.1h-58.3c0,0,29.5-31.3,29.5-31.3h-15.8l-27.7,31.9,2.1,11,53.9-.2h0Z"/>
    </g>
  </g>
</svg>