<?xml version="1.0" encoding="utf-8"?>
<!-- Generator: Adobe Illustrator 28.0.0, SVG Export Plug-In . SVG Version: 6.00 Build 0)  -->
<svg version="1.1" xmlns="http://www.w3.org/2000/svg" xmlns:xlink="http://www.w3.org/1999/xlink" x="0px" y="0px"
	 viewBox="0 0 1000 1000" style="enable-background:new 0 0 1000 1000;" xml:space="preserve">
<style type="text/css">
	.st0{display:none;}
	.st1{display:inline;}
	.st2{fill:#F7F9FC;}
	.st3{fill:#49A17B;}
	.st4{fill:#7631CD;}
	.st5{fill:#404041;}
	.st6{fill:#510C76;}
	.st7{fill:#15345B;}
	.st8{fill:#120F11;}
	.st9{fill:#6D809B;}
	.st10{fill:#B52025;}
	.st11{fill:#FFFFFF;}
	.st12{fill:#CF2329;}
	.st13{fill:#1D3B60;}
	.st14{opacity:0.6;}
	.st15{clip-path:url(#SVGID_00000134232881183661840070000011308931702588413874_);}
	.st16{clip-path:url(#SVGID_00000035519251397801395140000016858888755729157255_);fill:#5293C9;}
	
		.st17{clip-path:url(#SVGID_00000153705172148838766060000014437683854325560244_);fill:url(#SVGID_00000135677733041586342800000015415952199388317359_);}
	.st18{clip-path:url(#SVGID_00000018954605146852351450000003190610937760696501_);fill:#1D3B60;}
	
		.st19{clip-path:url(#SVGID_00000132081976539553808280000008445260076973836981_);fill:url(#SVGID_00000178916644609788869690000002740951939996936832_);}
	.st20{clip-path:url(#SVGID_00000074434996846810965310000000770343895971547538_);fill:#2D6683;}
	
		.st21{clip-path:url(#SVGID_00000174583520516471355370000016324265093405426848_);fill:url(#SVGID_00000047755931569272974600000002511747939119878830_);}
	.st22{clip-path:url(#SVGID_00000011014859369295953380000005050335102863109775_);fill:#7BADC5;}
	
		.st23{clip-path:url(#SVGID_00000091737821846840990370000006670127847620590247_);fill:url(#SVGID_00000183964473509164532340000016682621720204535991_);}
	.st24{opacity:0.3;}
	.st25{clip-path:url(#SVGID_00000043448251611790377370000008681116327430000820_);}
	.st26{clip-path:url(#SVGID_00000147216328607115466250000000764794632092194733_);fill:#5293C9;}
	
		.st27{clip-path:url(#SVGID_00000137824821342227676480000016687286251032501684_);fill:url(#SVGID_00000160190462401826229370000006075162044879548594_);}
	.st28{clip-path:url(#SVGID_00000085963235964436908520000016579741195036767646_);fill:#1D3B60;}
	
		.st29{clip-path:url(#SVGID_00000175286355790987773890000005138002468330872215_);fill:url(#SVGID_00000034061644377151084400000004497149535034669241_);}
	.st30{clip-path:url(#SVGID_00000098210379187442357220000004410657914619253914_);fill:#2D6683;}
	
		.st31{clip-path:url(#SVGID_00000073679093463664022130000013983529187657718972_);fill:url(#SVGID_00000173856687361954514650000000153795196379749054_);}
	.st32{clip-path:url(#SVGID_00000103263953268489500970000013250962356409938065_);fill:#7BADC5;}
	
		.st33{clip-path:url(#SVGID_00000105408383726204984210000016580121647887365506_);fill:url(#SVGID_00000137114729431623700470000017462443745759493801_);}
	.st34{opacity:0.1;}
	.st35{clip-path:url(#SVGID_00000036931414875650404620000006033409620734023809_);}
	.st36{clip-path:url(#SVGID_00000111893576077895571930000016852318208812340885_);fill:#5293C9;}
	
		.st37{clip-path:url(#SVGID_00000096743021181487795050000012219405322293315456_);fill:url(#SVGID_00000015353945697585212460000011401656381712063120_);}
	.st38{clip-path:url(#SVGID_00000125580315576252285750000005020600664648589247_);fill:#1D3B60;}
	
		.st39{clip-path:url(#SVGID_00000118366979085352370780000001119500483920843708_);fill:url(#SVGID_00000147909550763635908840000016346390100826706077_);}
	.st40{clip-path:url(#SVGID_00000140732415989087628910000002291823045600851857_);fill:#2D6683;}
	
		.st41{clip-path:url(#SVGID_00000093890576640846726340000015007767992576204686_);fill:url(#SVGID_00000078028503670205246510000008469539112534654371_);}
	.st42{clip-path:url(#SVGID_00000076602122287155124500000012297497780111618216_);fill:#7BADC5;}
	
		.st43{clip-path:url(#SVGID_00000000208023840675046540000011611519776131346349_);fill:url(#SVGID_00000137113413922783825700000001054906402336681382_);}
	.st44{fill:#5293C9;}
	.st45{fill:#2D6683;}
	.st46{fill:#7BADC5;}
	.st47{fill:#CE1D5E;}
	.st48{fill:#CE0E2D;}
	.st49{fill:#F1F1F1;}
	.st50{fill:#010101;}
	.st51{fill:#CD9967;}
	.st52{fill:#BB8D5C;}
	.st53{fill:#AE807A;}
	.st54{fill:#AC8079;}
	.st55{fill:#262626;}
	.st56{fill:#80B041;}
	.st57{fill:#1985C1;}
	.st58{fill:#293678;}
	.st59{fill:#1EBBB9;}
	.st60{fill:#333333;}
	.st61{fill:#76519B;}
	.st62{fill:#5F9E81;}
	.st63{fill:#439778;}
	.st64{fill:#304043;}
	.st65{fill:#3F8E8B;}
	.st66{fill:#808081;}
	.st67{fill:none;stroke:#808081;stroke-width:0.3838;stroke-miterlimit:10;}
	.st68{fill:#221F20;}
	.st69{fill:#3B8569;}
	.st70{fill:#5F6163;}
	.st71{fill:#A6A8AB;}
	.st72{fill:#8B8072;}
	.st73{fill:#22516F;}
	
		.st74{clip-path:url(#SVGID_00000039829675946245240280000002467916298863214265_);fill:url(#SVGID_00000076567842976784791660000009657964466417108868_);}
	
		.st75{clip-path:url(#SVGID_00000034077094120630147390000013138995469109803149_);fill:url(#SVGID_00000039128030247503500430000015445678792108732303_);}
	.st76{fill:#76777A;}
	.st77{fill:#51B187;}
	
		.st78{clip-path:url(#SVGID_00000023992058688153892890000018133106305169621134_);fill:url(#SVGID_00000183221897783082270440000005879096097768731809_);}
	
		.st79{clip-path:url(#SVGID_00000129167879624078490820000002438765584551376554_);fill:url(#SVGID_00000168822905377965078220000011275692398515404478_);}
	
		.st80{clip-path:url(#SVGID_00000142175592729060480560000015710426641788522627_);fill:url(#SVGID_00000042000017998957676670000005893419953697807283_);}
	
		.st81{clip-path:url(#SVGID_00000016759865699804603840000011836251560155509157_);fill:url(#SVGID_00000031205180581036809600000014571482668270553480_);}
	
		.st82{clip-path:url(#SVGID_00000032609468544855797270000004529284649375998904_);fill:url(#SVGID_00000011740858308538123850000016776975680478702520_);}
	
		.st83{clip-path:url(#SVGID_00000085965951581962350290000009742922997261747330_);fill:url(#SVGID_00000086651441667769675580000013151358703485066128_);}
	
		.st84{clip-path:url(#SVGID_00000052819126226392674310000016218684892287095981_);fill:url(#SVGID_00000038415542081376517150000007161995090030154142_);}
	
		.st85{clip-path:url(#SVGID_00000091002403583167185150000012914897730806657666_);fill:url(#SVGID_00000070091370179097444460000010270910638213491890_);}
	
		.st86{clip-path:url(#SVGID_00000171704651644763142650000003850178895207328132_);fill:url(#SVGID_00000170960844760288653410000014134853354807467142_);}
	
		.st87{clip-path:url(#SVGID_00000182495596377662436970000010123281932238900872_);fill:url(#SVGID_00000037672988884478199540000007350294698130899122_);}
	
		.st88{clip-path:url(#SVGID_00000170241883296400859530000005491130931071662510_);fill:url(#SVGID_00000114037417410949515410000016763885951147568795_);}
	
		.st89{clip-path:url(#SVGID_00000050620591111265381310000000915191962953640860_);fill:url(#SVGID_00000062151701777544828830000008368507720462740139_);}
	
		.st90{clip-path:url(#SVGID_00000160192755726084664580000017018723874221963651_);fill:url(#SVGID_00000181046281147806663150000011227555030621649800_);}
	
		.st91{clip-path:url(#SVGID_00000163054881467582180710000008094800572752521602_);fill:url(#SVGID_00000124138520102125660610000003676722320957706406_);}
	
		.st92{clip-path:url(#SVGID_00000150818796219426282560000001008772209158058410_);fill:url(#SVGID_00000094590818490907820280000005716827682570833795_);}
	
		.st93{clip-path:url(#SVGID_00000000196305951928712220000011698977827489656499_);fill:url(#SVGID_00000112594577950770025210000008174487289568897466_);}
	
		.st94{clip-path:url(#SVGID_00000057830122444681812120000010731980669623361451_);fill:url(#SVGID_00000030478209459763257390000012620385974913016504_);}
	
		.st95{clip-path:url(#SVGID_00000060709492657935157920000007576506623990597798_);fill:url(#SVGID_00000021114361268015809480000006124578625947189681_);}
	
		.st96{clip-path:url(#SVGID_00000183929429066449287330000016113750554824912548_);fill:url(#SVGID_00000115502830521125475500000002824619064514126265_);}
	
		.st97{clip-path:url(#SVGID_00000164492379882167266580000005683442969736970421_);fill:url(#SVGID_00000029032554134446512640000014068510831630682530_);}
	
		.st98{clip-path:url(#SVGID_00000046305572884777779460000015622233838192504716_);fill:url(#SVGID_00000008135318944221871620000000411837651730400433_);}
	
		.st99{clip-path:url(#SVGID_00000122719392732286329440000000507307109712233883_);fill:url(#SVGID_00000093173828199325233090000009301797933095480500_);}
	
		.st100{clip-path:url(#SVGID_00000180342462445922740650000015476859022857708977_);fill:url(#SVGID_00000156575808744128630670000007877644273063194542_);}
	
		.st101{clip-path:url(#SVGID_00000095310942551782615350000001567534015370208129_);fill:url(#SVGID_00000116950954068461741130000000318497067723596711_);}
	
		.st102{clip-path:url(#SVGID_00000050648230893989994370000005753071554700090283_);fill:url(#SVGID_00000106861225612675870020000006900644979039721886_);}
	
		.st103{clip-path:url(#SVGID_00000145033216772224434930000011683847543506856834_);fill:url(#SVGID_00000084497379171234717320000013736492335741279379_);}
	
		.st104{clip-path:url(#SVGID_00000149352733105513906380000004067030007700055698_);fill:url(#SVGID_00000119836500668556878240000000822698994320861571_);}
	
		.st105{clip-path:url(#SVGID_00000157292193299058534740000014812341836026279351_);fill:url(#SVGID_00000034789747830117018700000007915981799928263810_);}
	
		.st106{clip-path:url(#SVGID_00000006689333440951601690000013504938607264686230_);fill:url(#SVGID_00000067935845392067728100000004315400755389729419_);}
	
		.st107{clip-path:url(#SVGID_00000092422583799443274960000000032427361944890262_);fill:url(#SVGID_00000074413372368332637040000004916441649495229094_);}
	
		.st108{clip-path:url(#SVGID_00000065760540725003850490000008746873070436540067_);fill:url(#SVGID_00000140718275288624144560000006259002208280185233_);}
	
		.st109{clip-path:url(#SVGID_00000044166964695854931410000015241971883156207497_);fill:url(#SVGID_00000074438673912361055350000016341716127517071746_);}
	
		.st110{clip-path:url(#SVGID_00000021816708024699098210000006306188307285838210_);fill:url(#SVGID_00000018206688790192676680000017205965569618964103_);}
	
		.st111{clip-path:url(#SVGID_00000163769961821125739370000000118260086494894739_);fill:url(#SVGID_00000032636782029517473590000014494001863076317348_);}
	
		.st112{clip-path:url(#SVGID_00000145741978397228821350000013989881858732960907_);fill:url(#SVGID_00000164482221849082787860000002949125325147461308_);}
	
		.st113{clip-path:url(#SVGID_00000127014163893089778140000004840778727635421873_);fill:url(#SVGID_00000046326679597956292690000013853043864444179622_);}
	
		.st114{clip-path:url(#SVGID_00000066476491472188493880000003380552540313847223_);fill:url(#SVGID_00000125596916483494904120000003706405825389295509_);}
	
		.st115{clip-path:url(#SVGID_00000023978364689806607280000012939051326452793238_);fill:url(#SVGID_00000154427239355239429980000006403425524438224273_);}
	
		.st116{clip-path:url(#SVGID_00000169529685098776802230000015197316563136304010_);fill:url(#SVGID_00000165950583724446961620000002993624914708793503_);}
	
		.st117{clip-path:url(#SVGID_00000116920936956078091060000005627309886844218534_);fill:url(#SVGID_00000163061340210527576700000005548146233906990251_);}
	
		.st118{clip-path:url(#SVGID_00000009565754593057635410000008719479470687554707_);fill:url(#SVGID_00000152224785617465958060000004301906796347149757_);}
	
		.st119{clip-path:url(#SVGID_00000055673887456493860100000017775767190434800000_);fill:url(#SVGID_00000122690603060609291350000012570743339671882388_);}
	
		.st120{clip-path:url(#SVGID_00000004543063892112714110000007760367608852753838_);fill:url(#SVGID_00000133527142601275806250000004435534335487820175_);}
	
		.st121{clip-path:url(#SVGID_00000050662446101589303480000015985022044561967762_);fill:url(#SVGID_00000173877921492061633780000005163166233053040293_);}
	
		.st122{clip-path:url(#SVGID_00000116214691405370068400000017488064560995680928_);fill:url(#SVGID_00000173163381518215092390000009944615211893236867_);}
	
		.st123{clip-path:url(#SVGID_00000152265310251985224350000017179827146365761465_);fill:url(#SVGID_00000118359598431371497380000014414650157644694934_);}
	
		.st124{clip-path:url(#SVGID_00000132797553772915662720000010569635226400810636_);fill:url(#SVGID_00000059279466598308255120000015912397412101523329_);}
	
		.st125{clip-path:url(#SVGID_00000000903250771116008750000001602699621498115773_);fill:url(#SVGID_00000131353795417578946760000013662410137955112863_);}
	
		.st126{clip-path:url(#SVGID_00000003796331651404622690000003617387296567157688_);fill:url(#SVGID_00000134968539773219185630000012323045240958450332_);}
	
		.st127{clip-path:url(#SVGID_00000031196021010328604730000010153419798793853618_);fill:url(#SVGID_00000040571567214422057430000014869933328000375941_);}
	
		.st128{clip-path:url(#SVGID_00000052799745190240040450000007176496069744004225_);fill:url(#SVGID_00000011749283368042227650000015398182248708682162_);}
	
		.st129{clip-path:url(#SVGID_00000182526529739375132240000011108787504387452289_);fill:url(#SVGID_00000126298110595560999980000008840988808955575692_);}
	
		.st130{clip-path:url(#SVGID_00000037655839199503938850000007954368472894312106_);fill:url(#SVGID_00000109737956311710850700000000387144217260966313_);}
	
		.st131{clip-path:url(#SVGID_00000092420669026523699730000010461407580997496497_);fill:url(#SVGID_00000032637223697653325670000013683775560298958504_);}
	.st132{fill:#1B685C;}
	.st133{fill:#646B70;}
	
		.st134{clip-path:url(#SVGID_00000115503997765910377250000011258813498411722887_);fill:url(#SVGID_00000145032697221391435140000010763268740637812665_);}
	
		.st135{clip-path:url(#SVGID_00000173882734144118165070000008487293543301376925_);fill:url(#SVGID_00000082329889046664879710000007112322971689490819_);}
	
		.st136{clip-path:url(#SVGID_00000176748817915271827420000005813741145722021511_);fill:url(#SVGID_00000047745270829330972680000010306565988268093317_);}
	
		.st137{clip-path:url(#SVGID_00000094587399916112845960000003605927967522477702_);fill:url(#SVGID_00000021092895133265950430000008071710785728828804_);}
	
		.st138{clip-path:url(#SVGID_00000183232989443153841200000008336422850684368776_);fill:url(#SVGID_00000149354785065152757750000005695169384044426636_);}
	
		.st139{clip-path:url(#SVGID_00000068642940657429758650000015882271321962344346_);fill:url(#SVGID_00000057857985157216667520000001580469028603455639_);}
	
		.st140{clip-path:url(#SVGID_00000006668583371285382330000007205229521536950921_);fill:url(#SVGID_00000102512576609492654570000015480766105207642257_);}
	
		.st141{clip-path:url(#SVGID_00000012469509228745549790000011240548532737912205_);fill:url(#SVGID_00000020379453680196728830000006440042068622352276_);}
	
		.st142{clip-path:url(#SVGID_00000018952988202726787570000009273394730807788461_);fill:url(#SVGID_00000129912054652663369580000005394720457690833810_);}
	
		.st143{clip-path:url(#SVGID_00000088119533690743429340000007360611685530790315_);fill:url(#SVGID_00000179629658080318750640000017572384365276065706_);}
	
		.st144{clip-path:url(#SVGID_00000170958627283202148280000013184105269214166692_);fill:url(#SVGID_00000147936613265306281220000003314340713908546732_);}
	
		.st145{clip-path:url(#SVGID_00000007398916785412733740000013753018770375421840_);fill:url(#SVGID_00000076584428542077779400000015137461901861015224_);}
	
		.st146{clip-path:url(#SVGID_00000114778953961051747210000008156786460475374763_);fill:url(#SVGID_00000106147611801502043890000008282500267953123255_);}
	
		.st147{clip-path:url(#SVGID_00000128481211150509868890000009322542888427430565_);fill:url(#SVGID_00000000939513010670007290000008032032288699826065_);}
	
		.st148{clip-path:url(#SVGID_00000165943378781228648990000017441423584593833400_);fill:url(#SVGID_00000005253484147582533080000002581584031539968669_);}
	
		.st149{clip-path:url(#SVGID_00000061465099766880155510000010617578360685133756_);fill:url(#SVGID_00000094590596123127549830000006274159459476807571_);}
	
		.st150{clip-path:url(#SVGID_00000103974671723125256690000001778967849536580530_);fill:url(#SVGID_00000140692953658021133130000002977297444514475185_);}
	
		.st151{clip-path:url(#SVGID_00000012461716350712837210000002750010543619890058_);fill:url(#SVGID_00000142898259946017874530000002687195440012286617_);}
	
		.st152{clip-path:url(#SVGID_00000005238160874548792280000011312991152634333061_);fill:url(#SVGID_00000058591212146866274850000007882323325805328513_);}
	
		.st153{clip-path:url(#SVGID_00000144311748281593729560000006570748262217920386_);fill:url(#SVGID_00000027569440527103577130000003563338247681539209_);}
	
		.st154{clip-path:url(#SVGID_00000074434813876331627140000000364120676808296866_);fill:url(#SVGID_00000079462784523122579370000006510429707260708510_);}
	
		.st155{clip-path:url(#SVGID_00000096738410262531243230000002977302245814004354_);fill:url(#SVGID_00000125568716999823900250000017710441294224166291_);}
	
		.st156{clip-path:url(#SVGID_00000065790512866691062580000003558195430252517306_);fill:url(#SVGID_00000097491551420568416700000012738624355769074567_);}
	
		.st157{clip-path:url(#SVGID_00000165193468451944129390000014183838349506347427_);fill:url(#SVGID_00000139288002183209798330000002768049150071512713_);}
	
		.st158{clip-path:url(#SVGID_00000004517273085571614220000013685383768395019411_);fill:url(#SVGID_00000054965952233386172250000016575593522368940424_);}
	
		.st159{clip-path:url(#SVGID_00000026132011704446548100000007927849617395933613_);fill:url(#SVGID_00000080190504539898551190000005370376854542393474_);}
	
		.st160{clip-path:url(#SVGID_00000102533353151446034020000002650529267700504215_);fill:url(#SVGID_00000128472986270905915070000001994173346959269799_);}
	
		.st161{clip-path:url(#SVGID_00000034074642510526491340000004899393278722406844_);fill:url(#SVGID_00000098221679631585378240000012884254943008665748_);}
	
		.st162{clip-path:url(#SVGID_00000160898012273191100440000009600030921930018230_);fill:url(#SVGID_00000123415568157002363820000004390743475923607210_);}
	
		.st163{clip-path:url(#SVGID_00000013905278775874192040000009002019547621940872_);fill:url(#SVGID_00000029023605472734430130000005551312762298816181_);}
	
		.st164{clip-path:url(#SVGID_00000088090425227760086140000012428721474039667621_);fill:url(#SVGID_00000142855590132956449160000002700737129032285619_);}
	
		.st165{clip-path:url(#SVGID_00000029020525475536452000000012202141540281707168_);fill:url(#SVGID_00000127737500537639268500000012757764062295595927_);}
	
		.st166{clip-path:url(#SVGID_00000016777051265153455100000012046700097857359763_);fill:url(#SVGID_00000077315350961130990490000003609466684276800429_);}
	
		.st167{clip-path:url(#SVGID_00000078037973533057007790000009752916307945724324_);fill:url(#SVGID_00000179633094262291891610000005127465811300969640_);}
	
		.st168{clip-path:url(#SVGID_00000054949381756669670160000005450683598968912566_);fill:url(#SVGID_00000183944546979895070550000010447254401461446552_);}
	
		.st169{clip-path:url(#SVGID_00000147197029792329769540000006522337533162089638_);fill:url(#SVGID_00000026140489943695940570000006369649809025348264_);}
	
		.st170{clip-path:url(#SVGID_00000173130871673185192120000001537234305248552603_);fill:url(#SVGID_00000164500273288929003570000017153251050739422398_);}
	
		.st171{clip-path:url(#SVGID_00000062882458283048640010000006466517514034972088_);fill:url(#SVGID_00000036214481792686480090000016383356762563321475_);}
	
		.st172{clip-path:url(#SVGID_00000096054814085011759630000017603063603235198882_);fill:url(#SVGID_00000182512079074277171590000003475120840989973149_);}
	
		.st173{clip-path:url(#SVGID_00000150781160942847458750000014281203008655892143_);fill:url(#SVGID_00000137850757089381007340000016019968219998923167_);}
	
		.st174{clip-path:url(#SVGID_00000091007070615957578410000013259435051055780228_);fill:url(#SVGID_00000013892761506107273230000013484451151658687655_);}
	
		.st175{clip-path:url(#SVGID_00000157283967336867800870000013494265714007582104_);fill:url(#SVGID_00000001663638052033223990000008193830590898236053_);}
	
		.st176{clip-path:url(#SVGID_00000009586395287473204240000012889292590643684498_);fill:url(#SVGID_00000144338896455440389350000005959248944037268145_);}
	
		.st177{clip-path:url(#SVGID_00000016783969661280046160000009945329896965848706_);fill:url(#SVGID_00000125590299150415991690000007988327379030142891_);}
	
		.st178{clip-path:url(#SVGID_00000155838698125246719050000013207972227772844678_);fill:url(#SVGID_00000098181815594699683200000003684606475068767881_);}
	
		.st179{clip-path:url(#SVGID_00000058576643005139563250000007830478271602954400_);fill:url(#SVGID_00000016773055496126247500000018314465357882487973_);}
	
		.st180{clip-path:url(#SVGID_00000144296627217947972960000007834746074982923932_);fill:url(#SVGID_00000005952783887562420350000011198951917506847935_);}
	
		.st181{clip-path:url(#SVGID_00000019653714722447010040000009098521028632460676_);fill:url(#SVGID_00000025413373584807695740000001299562800400142475_);}
	
		.st182{clip-path:url(#SVGID_00000010295688883052840500000012800038282047903163_);fill:url(#SVGID_00000006709615816371125040000002802072471300794792_);}
	
		.st183{clip-path:url(#SVGID_00000167397752968954896690000018110502490734936964_);fill:url(#SVGID_00000053535515904498174370000008410382126002146982_);}
	
		.st184{clip-path:url(#SVGID_00000160885774394457653170000007868902825777877904_);fill:url(#SVGID_00000131327319817714828980000016871641042321984134_);}
	
		.st185{clip-path:url(#SVGID_00000005960959121798329050000010399381179433660050_);fill:url(#SVGID_00000090990144362848650040000000894568250001708722_);}
	
		.st186{clip-path:url(#SVGID_00000144328427557368564270000012982142087470668948_);fill:url(#SVGID_00000119112001545299563360000016279027215039806859_);}
	
		.st187{clip-path:url(#SVGID_00000142892070463863981750000001018440842024682627_);fill:url(#SVGID_00000121259145430295658440000007908696635127348899_);}
	.st188{fill:#556273;}
	.st189{fill:#4DA656;}
	.st190{fill:#6EBB9C;}
	.st191{fill:#469694;}
	.st192{fill:#95C46E;}
	.st193{fill:#8FA3D0;}
	.st194{fill:#6163A6;}
	.st195{fill:#005C82;}
	.st196{fill:#1FAC80;}
	.st197{fill:#2C2E6C;}
	.st198{clip-path:url(#SVGID_00000011011576501349670620000007208125825059337125_);}
	.st199{clip-path:url(#SVGID_00000008119574253478688030000011654682047389054632_);}
	.st200{clip-path:url(#SVGID_00000028308240522904993390000003550757792331793825_);}
	.st201{clip-path:url(#SVGID_00000165913285480678848600000011019413172602874034_);}
	.st202{clip-path:url(#SVGID_00000061467319083607141410000018425762763373825712_);}
	.st203{clip-path:url(#SVGID_00000109709496758815695390000007187591783776331652_);}
	.st204{clip-path:url(#SVGID_00000093179383513389837550000012539730527224917389_);}
	.st205{clip-path:url(#SVGID_00000115481239265542911990000006170470076386826885_);}
	.st206{fill:#383838;}
	.st207{clip-path:url(#SVGID_00000054971005338191493520000008548638129884860335_);fill:#383838;}
	.st208{clip-path:url(#SVGID_00000166674965742798570630000015205015972156272060_);}
	.st209{fill:#231F20;}
	.st210{fill:#BABDBB;}
	.st211{fill:#6EB0DE;}
	.st212{fill:#77807C;}
	.st213{fill:#4D4E4E;}
	.st214{fill:#53AB73;}
	.st215{fill:#408FA6;}
	.st216{fill:#3D8AA8;}
	.st217{fill:#3C83AA;}
	.st218{fill:#3A81AB;}
	.st219{fill:#387FAC;}
	.st220{fill:#387EAE;}
	.st221{fill:#416689;}
	.st222{fill:#58B3AC;}
	.st223{fill:#A42F35;}
	.st224{fill:#4E5052;}
	.st225{fill:#8ABD57;}
	.st226{fill:#1E1E1E;}
	.st227{fill:#494949;}
	.st228{fill:url(#SVGID_00000161629853046480373040000015615087526863833729_);}
	.st229{fill:#1D1D1B;}
	.st230{fill:#49A057;}
	.st231{fill:#D74A57;}
	.st232{fill:#3A7CBB;}
	.st233{fill:#F2BA56;}
	.st234{fill:#480986;}
	.st235{fill:#EB4B62;}
	.st236{fill:url(#SVGID_00000126304085736053656360000000974583076364882366_);}
	.st237{fill:url(#SVGID_00000056401023314840819030000008649589210703019710_);}
	.st238{fill:url(#SVGID_00000119838769584976635970000011368005035669093809_);}
	.st239{fill:url(#SVGID_00000129167822985089822110000012694688867477656220_);}
	.st240{fill:url(#SVGID_00000152227170626256818470000007968389961501483190_);}
	.st241{fill:url(#SVGID_00000019673538699045341000000016333028858465481406_);}
	.st242{fill:url(#SVGID_00000012469398566730298640000017623614643652819126_);}
	.st243{fill:#2E2566;}
	.st244{fill:url(#SVGID_00000072960380681298403490000012698814485092732053_);}
	.st245{fill:url(#SVGID_00000163770594160854580330000006578015047823941763_);}
	.st246{fill:url(#SVGID_00000123422250744390724350000010591941472086319785_);}
	.st247{fill:url(#SVGID_00000113331479933990095020000002895163403231915442_);}
	.st248{opacity:0.7;fill:url(#SVGID_00000073722280881740304560000010694655638518124211_);enable-background:new    ;}
	.st249{fill:url(#SVGID_00000067938399457222997630000011648442059182991262_);}
	.st250{fill:url(#SVGID_00000110433929067259533880000002101933285836679575_);}
	.st251{opacity:0.3;fill:url(#SVGID_00000065759145426951512170000005922897478532683695_);enable-background:new    ;}
	.st252{fill:url(#SVGID_00000008109355724857473420000003549662558144906148_);}
	.st253{fill:url(#SVGID_00000182517549444325267240000007409533238087416254_);}
	.st254{fill:url(#SVGID_00000104663899447077396140000009838094208229270922_);}
	.st255{fill:#808080;}
	.st256{fill:url(#SVGID_00000116210654445566232130000004556085478616332428_);}
	.st257{fill:url(#SVGID_00000098192655294146612120000000695524202402922902_);}
	.st258{fill:url(#SVGID_00000175309306264745505720000000508671432712131223_);}
	.st259{fill:url(#SVGID_00000163039063639220307740000016745301646626586280_);}
	.st260{fill:url(#SVGID_00000175323182268075033420000004972269465339162025_);}
	.st261{fill:url(#SVGID_00000086665459829968277840000011057712713921167749_);}
	.st262{fill:url(#SVGID_00000057139159242134206890000017474932789721815428_);}
	.st263{fill:#101460;}
	.st264{fill:#480985;}
	.st265{fill:#EA4B62;}
	.st266{fill:#234899;}
	.st267{fill:#224E9C;}
	.st268{fill:#2355A1;}
	.st269{fill:#2860A9;}
	.st270{fill:#808184;}
	.st271{fill:#224F9D;}
	.st272{fill:#243974;}
	.st273{fill:#215183;}
	.st274{fill:#9F9067;}
	.st275{fill:#09653D;}
	.st276{opacity:0.77;}
	.st277{opacity:0.51;fill:#9F9067;}
	.st278{opacity:0.83;fill:#9F9067;}
	.st279{opacity:0.77;fill:#9F9067;}
	.st280{opacity:0.67;fill:#9F9067;}
	.st281{fill:url(#SVGID_00000152236449301739505260000000227921354856584622_);}
	.st282{fill:#686868;}
	.st283{clip-path:url(#SVGID_00000153671229367653940230000010345463220621591728_);}
	.st284{fill:#C43C4B;}
	.st285{fill:#2E4DBC;}
	.st286{fill:#445275;}
	.st287{fill:#A66B9D;}
	.st288{fill:#BE4933;}
	.st289{fill:#5D4D87;}
	.st290{fill:#D97060;}
	.st291{fill:#D1A742;}
	.st292{fill:#3B857E;}
	.st293{fill:#6CE7AE;}
	.st294{fill-rule:evenodd;clip-rule:evenodd;}
	.st295{fill:#BA271A;}
	.st296{fill:#3A8364;}
	.st297{fill:#8A7830;}
	.st298{fill:url(#Path_70_00000158724367044401415770000016073114576669649541_);}
	.st299{fill:url(#Path_71_00000012459370640781152420000007023693195636795566_);}
	.st300{fill:url(#Path_72_00000089555996290538992290000004138468486486290361_);}
	.st301{fill:url(#Path_73_00000106138983098206350610000013243189287931777154_);}
	.st302{fill:url(#Path_74_00000177458158735324982210000007666017230425830811_);}
	.st303{fill:url(#Path_75_00000082369461719102103330000014104393425414914459_);}
	.st304{fill:url(#Path_76_00000023261560936811716430000011206120950319726229_);}
	.st305{fill:url(#Path_77_00000028319794523236043590000014514534984595281842_);}
	.st306{fill:url(#Path_78_00000049908941178867743010000017600864977775146400_);}
	.st307{fill:url(#Path_79_00000017504359173591970530000012972960481283549864_);}
	.st308{fill:url(#Path_80_00000042734460492231047040000013686504704959388074_);}
	.st309{fill:url(#Path_81_00000038376581101094164290000005126913872032479641_);}
	.st310{fill:url(#Path_82_00000111169719128584906320000018247479989498384552_);}
	.st311{fill:url(#Path_83_00000014612819324714146560000004491652818594224055_);}
	.st312{fill:url(#Path_84_00000065762617103173872930000018125916763076579486_);}
	.st313{fill:url(#Path_85_00000142161644427628490280000007072781421645439399_);}
	.st314{fill:url(#Path_86_00000074403356134349545260000000309438727523240347_);}
	.st315{fill:url(#Path_87_00000096042897460447425570000009253691188619958412_);}
	.st316{fill:url(#Path_88_00000145045198848536608850000016145319324135095724_);}
	.st317{fill:url(#Path_89_00000078742774147461723190000015050519624401350554_);}
	.st318{fill:url(#Path_90_00000088117532936523178050000009614693127461400230_);}
	.st319{fill:url(#Path_91_00000017514940321296458550000013056810562579741075_);}
	.st320{fill:url(#Path_92_00000049928772134686775370000014371300857351062173_);}
	.st321{fill:url(#Path_93_00000100367261331545287250000002010641953834159497_);}
	.st322{fill:url(#Path_94_00000047751943152168426730000015559894936667107775_);}
	.st323{fill:url(#Path_95_00000151534489538079352570000010119191158132901003_);}
	.st324{fill:url(#Path_96_00000003064347975519606040000003844820810727082387_);}
	.st325{fill:url(#Path_97_00000129888769417676888740000017822763241439822744_);}
	.st326{fill:url(#Path_98_00000155127488993664322680000005952774734118300812_);}
	.st327{fill:url(#Path_99_00000154398889327905349850000013191988864507330725_);}
	.st328{fill:url(#Path_100_00000170970758831351355650000011597429403111132572_);}
	.st329{fill:#808082;}
	.st330{fill:#53A46F;}
	.st331{fill:#C6834D;}
	.st332{fill:#20507E;}
	.st333{fill:#E4963F;}
	.st334{fill:#1C474C;}
	.st335{fill:#D3B286;}
	.st336{fill:#131E87;}
	.st337{fill:#357AB4;}
	.st338{fill:#0F1F88;}
	.st339{fill:#2F2C6B;}
	.st340{fill:#5DB2BC;}
	.st341{fill:#26245D;}
	.st342{fill:#DA9061;}
	.st343{fill:#232750;}
	.st344{fill:url(#Path_429_00000040546914243257928940000014760728468568299409_);}
	.st345{filter:url(#Adobe_OpacityMaskFilter);}
	.st346{fill-rule:evenodd;clip-rule:evenodd;fill:#FFFFFF;}
	.st347{mask:url(#mask-2_00000181778887308529790200000000831507762023491979_);fill-rule:evenodd;clip-rule:evenodd;fill:#245870;}
	.st348{filter:url(#Adobe_OpacityMaskFilter_00000046312980712748818500000001835606295221986458_);}
	.st349{mask:url(#mask-2_00000000207326656208497480000003303022884949798805_);fill-rule:evenodd;clip-rule:evenodd;fill:#245870;}
	.st350{filter:url(#Adobe_OpacityMaskFilter_00000144334103526772382440000008612960329553426617_);}
	.st351{mask:url(#mask-2_00000065785558703536194710000007734681589678738564_);fill-rule:evenodd;clip-rule:evenodd;fill:#245870;}
	.st352{filter:url(#Adobe_OpacityMaskFilter_00000070117302332782847060000014298598655022724747_);}
	.st353{mask:url(#mask-2_00000088815109359673616440000012657192332974893215_);fill-rule:evenodd;clip-rule:evenodd;fill:#245870;}
	.st354{filter:url(#Adobe_OpacityMaskFilter_00000067954308587341607350000009467014952875354009_);}
	.st355{mask:url(#mask-2_00000041975301509416525360000006506499995822959531_);fill-rule:evenodd;clip-rule:evenodd;fill:#245870;}
	.st356{filter:url(#Adobe_OpacityMaskFilter_00000132770400752824406310000004680030535187839879_);}
	.st357{mask:url(#mask-2_00000158750128845762389130000005294071396432734107_);fill-rule:evenodd;clip-rule:evenodd;fill:#245870;}
	.st358{fill-rule:evenodd;clip-rule:evenodd;fill:#245870;}
	.st359{fill-rule:evenodd;clip-rule:evenodd;fill:url(#path-4_00000101064848850274087810000016304634955014721717_);}
</style>
<g id="Layer_1" class="st0">
	<g class="st1">
		<g>
			<path class="st2" d="M141,141v718h718V141H141z M753,753H247V247h506V753z"/>
		</g>
	</g>
</g>
<g id="Layer_2">
	<g>
		<path class="st62" d="M632.36,319.86l-120.6-69.63c-7.25-4.19-16.26-4.19-23.51-0.01l-120.61,69.63
			c-7.25,4.19-11.76,11.99-11.76,20.36v139.26c0,8.38,4.51,16.17,11.76,20.36l120.61,69.63c3.56,2.06,7.63,3.15,11.76,3.15
			c4.13,0,8.19-1.08,11.75-3.15l120.61-69.63c7.25-4.19,11.76-11.99,11.76-20.36V340.22C644.12,331.84,639.61,324.05,632.36,319.86"
			/>
		<path class="st11" d="M628.72,326.16l-120.6-69.63c-5.01-2.89-11.23-2.89-16.23-0.01l-120.6,69.63
			c-5.01,2.89-8.12,8.28-8.12,14.05v139.26c0,5.78,3.11,11.17,8.12,14.06l120.6,69.63c2.5,1.45,5.31,2.17,8.12,2.17
			c2.8,0,5.61-0.72,8.12-2.17l120.6-69.63c5.01-2.89,8.12-8.28,8.12-14.06V340.22C636.83,334.44,633.72,329.05,628.72,326.16"/>
		<path class="st62" d="M503.66,313.41l117.89,58.7c2.77,1.38,6.01-0.64,6.01-3.72V345.5c0-5.4-2.88-10.39-7.56-13.09L505.9,266.53
			c-1.58-0.91-3.55,0.22-3.55,2.05v42.7C502.35,312.18,502.86,313.01,503.66,313.41"/>
		<path class="st62" d="M497.65,311.29v-42.7c0-1.83-1.97-2.96-3.55-2.05l-114.11,65.88c-4.68,2.7-7.56,7.69-7.56,13.09v22.88
			c0,3.09,3.25,5.1,6.01,3.72l117.89-58.7C497.15,313.01,497.65,312.19,497.65,311.29"/>
		<path class="st62" d="M487.06,545.81l3.48,2.31l-4.13-19.86l4.13,1.99c-2.48-7.12-3.97-17.21-3.97-17.21
			c1.49,1.16,3.97,1.66,3.97,1.66l-4.64-17.71c1.33,0.67,3.31,0.67,3.31,0.67c-0.66-2.65-2.81-11.75-2.81-11.75
			c0.66,0.67,2.97,1.49,2.97,1.49l-3.64-14.4c2.43,2.83,4.8,2.81,4.8,2.81l-2.15-13.74c-5.13,3.47-5.63,11.26-5.63,11.26l-2.64-2.65
			c-2.82,6.79-2.31,13.41-2.31,13.41l-2.82-2.97c-1.99,6.28,0,12.91,0,12.91l-3.31-3.47c-1.98,6.79,1.33,13.24,1.33,13.24
			c-1.33-0.17-5.79-2.16-5.79-2.16c-0.67,8.77,3.3,14.24,3.3,14.24c-7.94-4.31-7.94-11.09-7.94-11.09l-2.82,3.8
			c-3.15-7.12-1.82-11.92-1.82-11.92c-2.15,0-4.13,1.33-4.13,1.33c-1.33-8.77,4.13-13.9,4.13-13.9c-1.66-0.82-4.13-0.17-4.13-0.17
			c1.82-10.76,9.6-13.74,9.6-13.74c-3.14,0.5-4.46,0.17-4.46,0.17c5.13-7.78,13.57-9.27,13.57-9.27l-1.33-1.49
			c6.23-3.12,11.85-4.11,16.38-4.18v-0.01c0.05-0.49,0.24-1.14,0.47-1.93c-6.9-2.26-13.39,2.5-13.39,2.5l0.61-3.69
			c-7.15,1.67-12.24,5.93-12.24,5.93l0.78-4.02c-6.27,2.05-10.49,7.52-10.49,7.52l0.9-4.71c-6.67,2.34-9.98,8.79-9.98,8.79
			c-0.64-1.17-1.63-5.96-1.63-5.96c-7.51,4.58-9.63,10.99-9.63,10.99c-1.14-8.96,4.38-12.92,4.38-12.92l-4.73-0.06
			c3.95-6.7,8.62-8.42,8.62-8.42c-1.25-1.75-3.49-2.59-3.49-2.59c6.36-6.19,13.71-4.74,13.71-4.74c-0.29-1.83-2.27-3.46-2.27-3.46
			c9.8-4.79,16.76-0.21,16.76-0.21c-2.24-2.27-2.74-3.53-2.74-3.53c9.31-0.37,15.44,5.62,15.44,5.62l0.44-1.94
			c3.99,2.1,7.11,4.51,9.55,6.94c-0.51-2.56,0.21-4.02,1-4.83c-4.32-5.32-10.99-6.63-10.99-6.63l2.74-2.54
			c-6.67-3.06-13.31-2.81-13.31-2.81l3.08-2.7c-6.21-2.21-12.9-0.47-12.9-0.47l3.59-3.18c-6.71-2.23-13.28,0.84-13.28,0.84
			c0.22-1.31,2.37-5.71,2.37-5.71c-8.75-0.98-14.35,2.79-14.35,2.79c4.59-7.78,11.37-7.53,11.37-7.53l-3.7-2.95
			c7.23-2.88,11.97-1.38,11.97-1.38c0.08-2.15-1.17-4.19-1.17-4.19c8.81-1,13.74,4.65,13.74,4.65c0.89-1.63,0.32-4.13,0.32-4.13
			c10.68,2.21,13.38,10.1,13.38,10.1c-0.38-3.16,0-4.47,0-4.47c7.58,5.41,8.1,9.05,8.1,9.05l1.12-1.58
			c-1.81-4.02-4.1-13.32-4.1-13.32l5.13,3.97c-3.31-10.43-2.97-23.83-2.97-23.83l4.63,7.95c2.65-7.28,3.31-16.88,3.31-16.88v-16.87
			c0-1.68-1.71-2.83-3.27-2.19l-119.37,48.94c-1.56,0.64-2.58,2.16-2.58,3.85v64.79c0,5.4,2.88,10.39,7.56,13.09l106.72,61.62
			L487.06,545.81z"/>
		<path class="st62" d="M502.35,358.81v16.87c0,0,0.66,9.6,3.31,16.88l4.64-7.95c0,0,0.33,13.41-2.98,23.83l5.13-3.97
			c0,0-2.29,9.29-4.1,13.32l1.12,1.57c0,0,0.52-3.63,8.1-9.04c0,0,0.38,1.31-0.01,4.47c0,0,2.69-7.88,13.38-10.1
			c0,0-0.57,2.5,0.32,4.13c0,0,4.92-5.65,13.74-4.65c0,0-1.25,2.03-1.17,4.18c0,0,4.75-1.5,11.97,1.38l-3.7,2.95
			c0,0,6.78-0.25,11.37,7.53c0,0-5.6-3.77-14.34-2.79c0,0,2.15,4.39,2.36,5.71c0,0-6.57-3.07-13.28-0.84l3.6,3.18
			c0,0-6.69-1.74-12.9,0.47l3.08,2.7c0,0-6.63-0.25-13.31,2.81l2.74,2.55c0,0-6.68,1.3-11,6.63c0.79,0.81,1.51,2.27,1,4.83
			c2.43-2.43,5.55-4.84,9.54-6.94l0.44,1.94c0,0,6.13-5.99,15.44-5.62c0,0-0.51,1.27-2.74,3.53c0,0,6.95-4.58,16.76,0.21
			c0,0-1.98,1.63-2.28,3.46c0,0,7.35-1.45,13.71,4.74c0,0-2.23,0.84-3.49,2.59c0,0,4.67,1.72,8.62,8.42l-4.74,0.06
			c0,0,5.51,3.96,4.38,12.92c0,0-2.13-6.41-9.64-10.99c0,0-0.99,4.79-1.63,5.96c0,0-3.31-6.45-9.98-8.79l0.9,4.72
			c0,0-4.22-5.47-10.49-7.52l0.78,4.02c0,0-5.09-4.26-12.25-5.93l0.61,3.69c0,0-6.48-4.75-13.39-2.5c0.22,0.79,0.42,1.44,0.47,1.94
			c4.54,0.07,10.15,1.07,16.38,4.18l-1.32,1.49c0,0,8.43,1.49,13.57,9.27c0,0-1.32,0.33-4.46-0.17c0,0,7.78,2.98,9.6,13.74
			c0,0-2.48-0.66-4.13,0.17c0,0,5.46,5.13,4.13,13.9c0,0-1.98-1.33-4.13-1.33c0,0,1.33,4.8-1.82,11.92l-2.81-3.8
			c0,0,0,6.79-7.95,11.09c0,0,3.97-5.46,3.31-14.23c0,0-4.47,1.98-5.8,2.15c0,0,3.31-6.45,1.33-13.24l-3.31,3.48
			c0,0,1.99-6.62,0-12.91l-2.81,2.98c0,0,0.49-6.62-2.32-13.41l-2.64,2.65c0,0-0.5-7.78-5.63-11.26l-2.15,13.74
			c0,0,2.38,0.02,4.8-2.81l-3.64,14.4c0,0,2.31-0.83,2.98-1.49c0,0-2.16,9.1-2.82,11.75c0,0,1.98,0,3.31-0.67l-4.64,17.71
			c0,0,2.49-0.5,3.97-1.66c0,0-1.48,10.1-3.97,17.21l4.14-1.99l-4.14,19.86l3.48-2.31l0.35,3.1l106.72-61.62
			c4.68-2.7,7.56-7.69,7.56-13.09v-64.79c0-1.69-1.02-3.21-2.58-3.85l-119.37-48.94C504.06,355.98,502.35,357.13,502.35,358.81"/>
		<path class="st63" d="M632.36,319.86l-120.6-69.63c-7.25-4.19-16.26-4.19-23.51-0.01l-120.61,69.63
			c-7.25,4.19-11.76,11.99-11.76,20.36v139.26c0,8.38,4.51,16.17,11.76,20.36l120.61,69.63c3.56,2.06,7.63,3.15,11.76,3.15
			c4.13,0,8.19-1.08,11.75-3.15l120.61-69.63c7.25-4.19,11.76-11.99,11.76-20.36V340.22C644.12,331.84,639.61,324.05,632.36,319.86"
			/>
		<path class="st11" d="M628.72,326.16l-120.6-69.63c-5.01-2.89-11.23-2.89-16.23-0.01l-120.6,69.63
			c-5.01,2.89-8.12,8.28-8.12,14.05v139.26c0,5.78,3.11,11.17,8.12,14.06l120.6,69.63c2.5,1.45,5.31,2.17,8.12,2.17
			c2.8,0,5.61-0.72,8.12-2.17l120.6-69.63c5.01-2.89,8.12-8.28,8.12-14.06V340.22C636.83,334.44,633.72,329.05,628.72,326.16"/>
		<path class="st63" d="M503.66,313.41l117.89,58.7c2.77,1.38,6.01-0.64,6.01-3.72V345.5c0-5.4-2.88-10.39-7.56-13.09L505.9,266.53
			c-1.58-0.91-3.55,0.22-3.55,2.05v42.7C502.35,312.18,502.86,313.01,503.66,313.41"/>
		<path class="st63" d="M497.65,311.29v-42.7c0-1.83-1.97-2.96-3.55-2.05l-114.11,65.88c-4.68,2.7-7.56,7.69-7.56,13.09v22.88
			c0,3.09,3.25,5.1,6.01,3.72l117.89-58.7C497.15,313.01,497.65,312.19,497.65,311.29"/>
		<path class="st63" d="M487.06,545.81l3.48,2.31l-4.13-19.86l4.13,1.99c-2.48-7.12-3.97-17.21-3.97-17.21
			c1.49,1.16,3.97,1.66,3.97,1.66l-4.64-17.71c1.33,0.67,3.31,0.67,3.31,0.67c-0.66-2.65-2.81-11.75-2.81-11.75
			c0.66,0.67,2.97,1.49,2.97,1.49l-3.64-14.4c2.43,2.83,4.8,2.81,4.8,2.81l-2.15-13.74c-5.13,3.47-5.63,11.26-5.63,11.26l-2.64-2.65
			c-2.82,6.79-2.31,13.41-2.31,13.41l-2.82-2.97c-1.99,6.28,0,12.91,0,12.91l-3.31-3.47c-1.98,6.79,1.33,13.24,1.33,13.24
			c-1.33-0.17-5.79-2.16-5.79-2.16c-0.67,8.77,3.3,14.24,3.3,14.24c-7.94-4.31-7.94-11.09-7.94-11.09l-2.82,3.8
			c-3.15-7.12-1.82-11.92-1.82-11.92c-2.15,0-4.13,1.33-4.13,1.33c-1.33-8.77,4.13-13.9,4.13-13.9c-1.66-0.82-4.13-0.17-4.13-0.17
			c1.82-10.76,9.6-13.74,9.6-13.74c-3.14,0.5-4.46,0.17-4.46,0.17c5.13-7.78,13.57-9.27,13.57-9.27l-1.33-1.49
			c6.23-3.12,11.85-4.11,16.38-4.18v-0.01c0.05-0.49,0.24-1.14,0.47-1.93c-6.9-2.26-13.39,2.5-13.39,2.5l0.61-3.69
			c-7.15,1.67-12.24,5.93-12.24,5.93l0.78-4.02c-6.27,2.05-10.49,7.52-10.49,7.52l0.9-4.71c-6.67,2.34-9.98,8.79-9.98,8.79
			c-0.64-1.17-1.63-5.96-1.63-5.96c-7.51,4.58-9.63,10.99-9.63,10.99c-1.14-8.96,4.38-12.92,4.38-12.92l-4.73-0.06
			c3.95-6.7,8.62-8.42,8.62-8.42c-1.25-1.75-3.49-2.59-3.49-2.59c6.36-6.19,13.71-4.74,13.71-4.74c-0.29-1.83-2.27-3.46-2.27-3.46
			c9.8-4.79,16.76-0.21,16.76-0.21c-2.24-2.27-2.74-3.53-2.74-3.53c9.31-0.37,15.44,5.62,15.44,5.62l0.44-1.94
			c3.99,2.1,7.11,4.51,9.55,6.94c-0.51-2.56,0.21-4.02,1-4.83c-4.32-5.32-10.99-6.63-10.99-6.63l2.74-2.54
			c-6.67-3.06-13.31-2.81-13.31-2.81l3.08-2.7c-6.21-2.21-12.9-0.47-12.9-0.47l3.59-3.18c-6.71-2.23-13.28,0.84-13.28,0.84
			c0.22-1.31,2.37-5.71,2.37-5.71c-8.75-0.98-14.35,2.79-14.35,2.79c4.59-7.78,11.37-7.53,11.37-7.53l-3.7-2.95
			c7.23-2.88,11.97-1.38,11.97-1.38c0.08-2.15-1.17-4.19-1.17-4.19c8.81-1,13.74,4.65,13.74,4.65c0.89-1.63,0.32-4.13,0.32-4.13
			c10.68,2.21,13.38,10.1,13.38,10.1c-0.38-3.16,0-4.47,0-4.47c7.58,5.41,8.1,9.05,8.1,9.05l1.12-1.58
			c-1.81-4.02-4.1-13.32-4.1-13.32l5.13,3.97c-3.31-10.43-2.97-23.83-2.97-23.83l4.63,7.95c2.65-7.28,3.31-16.88,3.31-16.88v-16.87
			c0-1.68-1.71-2.83-3.27-2.19l-119.37,48.94c-1.56,0.64-2.58,2.16-2.58,3.85v64.79c0,5.4,2.88,10.39,7.56,13.09l106.72,61.62
			L487.06,545.81z"/>
		<path class="st63" d="M502.35,358.81v16.87c0,0,0.66,9.6,3.31,16.88l4.64-7.95c0,0,0.33,13.41-2.98,23.83l5.13-3.97
			c0,0-2.29,9.29-4.1,13.32l1.12,1.57c0,0,0.52-3.63,8.1-9.04c0,0,0.38,1.31-0.01,4.47c0,0,2.69-7.88,13.38-10.1
			c0,0-0.57,2.5,0.32,4.13c0,0,4.92-5.65,13.74-4.65c0,0-1.25,2.03-1.17,4.18c0,0,4.75-1.5,11.97,1.38l-3.7,2.95
			c0,0,6.78-0.25,11.37,7.53c0,0-5.6-3.77-14.34-2.79c0,0,2.15,4.39,2.36,5.71c0,0-6.57-3.07-13.28-0.84l3.6,3.18
			c0,0-6.69-1.74-12.9,0.47l3.08,2.7c0,0-6.63-0.25-13.31,2.81l2.74,2.55c0,0-6.68,1.3-11,6.63c0.79,0.81,1.51,2.27,1,4.83
			c2.43-2.43,5.55-4.84,9.54-6.94l0.44,1.94c0,0,6.13-5.99,15.44-5.62c0,0-0.51,1.27-2.74,3.53c0,0,6.95-4.58,16.76,0.21
			c0,0-1.98,1.63-2.28,3.46c0,0,7.35-1.45,13.71,4.74c0,0-2.23,0.84-3.49,2.59c0,0,4.67,1.72,8.62,8.42l-4.74,0.06
			c0,0,5.51,3.96,4.38,12.92c0,0-2.13-6.41-9.64-10.99c0,0-0.99,4.79-1.63,5.96c0,0-3.31-6.45-9.98-8.79l0.9,4.72
			c0,0-4.22-5.47-10.49-7.52l0.78,4.02c0,0-5.09-4.26-12.25-5.93l0.61,3.69c0,0-6.48-4.75-13.39-2.5c0.22,0.79,0.42,1.44,0.47,1.94
			c4.54,0.07,10.15,1.07,16.38,4.18l-1.32,1.49c0,0,8.43,1.49,13.57,9.27c0,0-1.32,0.33-4.46-0.17c0,0,7.78,2.98,9.6,13.74
			c0,0-2.48-0.66-4.13,0.17c0,0,5.46,5.13,4.13,13.9c0,0-1.98-1.33-4.13-1.33c0,0,1.33,4.8-1.82,11.92l-2.81-3.8
			c0,0,0,6.79-7.95,11.09c0,0,3.97-5.46,3.31-14.23c0,0-4.47,1.98-5.8,2.15c0,0,3.31-6.45,1.33-13.24l-3.31,3.48
			c0,0,1.99-6.62,0-12.91l-2.81,2.98c0,0,0.49-6.62-2.32-13.41l-2.64,2.65c0,0-0.5-7.78-5.63-11.26l-2.15,13.74
			c0,0,2.38,0.02,4.8-2.81l-3.64,14.4c0,0,2.31-0.83,2.98-1.49c0,0-2.16,9.1-2.82,11.75c0,0,1.98,0,3.31-0.67l-4.64,17.71
			c0,0,2.49-0.5,3.97-1.66c0,0-1.48,10.1-3.97,17.21l4.14-1.99l-4.14,19.86l3.48-2.31l0.35,3.1l106.72-61.62
			c4.68-2.7,7.56-7.69,7.56-13.09v-64.79c0-1.69-1.02-3.21-2.58-3.85l-119.37-48.94C504.06,355.98,502.35,357.13,502.35,358.81"/>
		<path class="st64" d="M478.13,729.61c0,2.66-0.11,4.93-0.35,6.76c-0.23,1.82-0.55,3.35-0.97,4.55c-0.41,1.19-0.88,2.17-1.4,2.9
			c-0.52,0.73-1.11,1.34-1.72,1.81c-1.17,0.87-2.57,1.45-4.18,1.76c-1.64,0.31-3.71,0.46-6.17,0.46c-0.25,0-0.55-0.01-0.92-0.02
			c-0.37-0.01-0.76-0.04-1.16-0.07c-0.39-0.03-0.78-0.06-1.15-0.11c-0.24-0.03-0.45-0.07-0.65-0.1v-33.93
			c0.16-0.02,0.35-0.05,0.56-0.08c0.37-0.04,0.75-0.08,1.15-0.11c0.4-0.03,0.8-0.05,1.21-0.07c0.39-0.02,0.75-0.02,1.06-0.02
			c2.04,0,3.99,0.24,5.77,0.71c1.76,0.47,3.31,1.3,4.62,2.49c1.3,1.18,2.36,2.84,3.13,4.92
			C477.74,723.56,478.13,726.3,478.13,729.61 M481.58,712.97c-1.99-1.67-4.39-2.89-7.16-3.65c-2.74-0.75-5.84-1.14-9.19-1.14
			c-1.15,0-2.4,0.02-3.73,0.06c-1.33,0.05-2.65,0.11-3.96,0.19c-1.31,0.08-2.56,0.18-3.73,0.28c-1.17,0.11-2.19,0.21-3.06,0.31
			c-0.19,0.02-0.34,0.18-0.34,0.38v42.43c0,0.19,0.15,0.35,0.34,0.37c0.85,0.09,1.84,0.18,2.96,0.26c1.12,0.08,2.3,0.16,3.51,0.24
			c1.22,0.08,2.47,0.14,3.73,0.16c1.27,0.03,2.48,0.05,3.63,0.05c4.15,0,7.73-0.58,10.67-1.71c2.94-1.14,5.38-2.78,7.26-4.88
			c1.87-2.09,3.25-4.65,4.1-7.61c0.85-2.93,1.28-6.23,1.28-9.81c0-3.69-0.55-6.87-1.64-9.48
			C485.13,716.81,483.56,714.64,481.58,712.97"/>
		<path class="st64" d="M508.76,708.65h-8.33c-0.21,0-0.38,0.17-0.38,0.38v43.13c0,0.21,0.17,0.38,0.38,0.38h8.33
			c0.21,0,0.38-0.16,0.38-0.38v-43.13C509.14,708.82,508.97,708.65,508.76,708.65"/>
		<path class="st64" d="M552.81,708.65h-5.05c-0.14,0-0.27,0.08-0.34,0.21l-10.14,20.45l-9.72-20.44c-0.06-0.14-0.19-0.22-0.34-0.22
			h-9.54c-0.13,0-0.25,0.07-0.32,0.18c-0.07,0.11-0.08,0.25-0.02,0.37l13.34,26.49v16.47c0,0.21,0.16,0.38,0.38,0.38h8.37
			c0.21,0,0.38-0.16,0.38-0.38v-16.47l13.34-26.49c0.06-0.12,0.05-0.26-0.01-0.37C553.06,708.72,552.94,708.65,552.81,708.65"/>
		<path class="st64" d="M426.89,732.51h-11.58l5.88-17.07L426.89,732.51z M428.07,708.18c-0.05-0.15-0.19-0.25-0.36-0.25h-8.26
			c-0.16,0-0.3,0.09-0.35,0.24l-16.4,43.2c-0.04,0.12-0.03,0.25,0.04,0.35c0.07,0.11,0.19,0.16,0.31,0.16h5.28
			c0.16,0,0.31-0.1,0.36-0.25l4.87-14.07l14.9-0.22l4.73,14.28c0.05,0.15,0.19,0.26,0.36,0.26h8.94c0.12,0,0.24-0.06,0.31-0.16
			c0.07-0.09,0.09-0.22,0.05-0.34L428.07,708.18z"/>
		<path class="st64" d="M393.61,707.99h-8.38c-0.21,0-0.38,0.17-0.38,0.38v24.13h-17.77v-24.13c0-0.21-0.17-0.38-0.38-0.38h-8.33
			c-0.21,0-0.38,0.17-0.38,0.38v43.13c0,0.21,0.17,0.38,0.38,0.38h8.33c0.21,0,0.38-0.17,0.38-0.38v-14.11h17.77v14.11
			c0,0.21,0.17,0.38,0.38,0.38h8.38c0.21,0,0.38-0.17,0.38-0.38v-43.13C393.99,708.16,393.82,707.99,393.61,707.99"/>
		<path class="st64" d="M581.31,732.51h-11.58l5.88-17.07L581.31,732.51z M582.49,708.18c-0.05-0.15-0.19-0.25-0.36-0.25h-8.26
			c-0.16,0-0.3,0.09-0.35,0.24l-16.4,43.2c-0.05,0.12-0.03,0.25,0.04,0.35c0.07,0.11,0.19,0.16,0.31,0.16h5.28
			c0.16,0,0.31-0.1,0.36-0.25l4.87-14.07l14.9-0.22l4.74,14.28c0.05,0.15,0.19,0.26,0.36,0.26h8.94c0.12,0,0.24-0.06,0.31-0.16
			c0.07-0.09,0.09-0.22,0.05-0.34L582.49,708.18z"/>
		<path class="st64" d="M641.62,707.99h-8.38c-0.21,0-0.38,0.17-0.38,0.38v24.13H615.1v-24.13c0-0.21-0.17-0.38-0.38-0.38h-8.33
			c-0.21,0-0.38,0.17-0.38,0.38v43.13c0,0.21,0.17,0.38,0.38,0.38h8.33c0.21,0,0.38-0.17,0.38-0.38v-14.11h17.77v14.11
			c0,0.21,0.17,0.38,0.38,0.38h8.38c0.21,0,0.38-0.17,0.38-0.38v-43.13C642,708.16,641.83,707.99,641.62,707.99"/>
		<path class="st64" d="M387.35,663.62c-1.48,0.43-3.13,0.79-4.9,1.06c-2.26,0.35-4.49,0.53-6.63,0.53c-3.55,0-6.04-1.34-7.63-4.09
			c-1.64-2.83-2.47-7.14-2.47-12.79c0-3.71,0.22-6.85,0.67-9.32c0.42-2.31,1.18-3.88,2.3-4.67c0.48-0.35,0.94-0.65,1.37-0.87
			c0.44-0.22,0.9-0.4,1.38-0.52c0.52-0.13,1.08-0.22,1.67-0.26c0.63-0.04,1.37-0.06,2.19-0.06c0.74,0,1.67,0.06,2.75,0.18
			c1.08,0.12,2.23,0.27,3.42,0.46c1.09,0.18,2.19,0.37,3.26,0.58c0.28,0.06,1.28,0.28,2.61,0.58V663.62z M476.26,633.1h-8.33
			c-0.42,0-0.75,0.34-0.75,0.75v31.01h-69.99v-35.53c0-0.35-0.25-0.65-0.59-0.73l-1.34-0.31c-2.36-0.54-5.28-1.2-7-1.57
			c-0.91-0.2-1.31-0.29-1.47-0.31c-0.8-0.14-1.71-0.25-2.87-0.38c-1.14-0.12-2.18-0.21-3.17-0.26c-1.18-0.07-2.2-0.1-3.1-0.1
			c-1.61,0-3.27,0.16-4.96,0.49c-1.71,0.31-3.39,0.84-5.02,1.57c-1.64,0.74-3.2,1.69-4.65,2.84c-1.47,1.17-2.79,2.6-3.9,4.26
			c-1.12,1.67-2.01,3.62-2.64,5.82c-0.65,2.21-0.97,4.73-0.97,7.49c0,3.4,0.33,6.55,0.98,9.36c0.66,2.86,1.74,5.34,3.19,7.36
			c1.47,2.06,3.4,3.68,5.75,4.82c2.33,1.14,5.2,1.71,8.52,1.71c1.24,0,2.54-0.07,3.89-0.21c1.34-0.14,2.69-0.35,4-0.62
			c1.28-0.26,2.58-0.6,3.86-1.01c0.57-0.18,1.11-0.36,1.64-0.56v1.11c0,0.42,0.34,0.75,0.75,0.75h88.16c0.42,0,0.75-0.34,0.75-0.75
			v-36.25C477.01,633.43,476.67,633.1,476.26,633.1"/>
		<path class="st64" d="M634.03,653.5c-0.11,1.63-0.28,3.13-0.51,4.46c-0.22,1.31-0.5,2.42-0.83,3.31c-0.35,0.97-0.7,1.35-0.93,1.51
			c-0.92,0.64-2.07,1.15-3.42,1.53c-1.35,0.39-3.12,0.58-5.25,0.58h-6.97v-31.33c0.63-0.31,1.35-0.57,2.16-0.77
			c1.49-0.38,3.12-0.57,4.86-0.57c1.92,0,3.6,0.36,4.98,1.07c1.37,0.7,2.52,1.73,3.4,3.06c0.91,1.37,1.58,3.07,2.01,5.05
			c0.47,2.14,0.66,4.1,0.66,6.53C634.18,649.84,634.13,651.97,634.03,653.5 M606.28,664.86h-10.45c-0.01-0.05-0.01-0.11-0.01-0.16
			c-0.1-1.53-0.16-3.66-0.16-5.56c0-2.43,0.2-4.38,0.66-6.53c0.43-1.99,1.11-3.69,2.02-5.05c0.88-1.33,2.03-2.36,3.4-3.07
			c1.27-0.65,2.8-1.01,4.54-1.05V664.86z M643.17,638.99L643.17,638.99c-0.89-2.79-2.24-5.2-4.02-7.18
			c-1.79-1.98-4.05-3.52-6.72-4.57c-2.65-1.04-5.79-1.57-9.32-1.57c-2.55,0-4.89,0.28-6.99,0.84v-6.69c0-0.42-0.34-0.75-0.75-0.75
			h-8.33c-0.42,0-0.75,0.34-0.75,0.75v17.05c-3.35,0.04-6.33,0.57-8.87,1.57c-2.67,1.05-4.93,2.59-6.71,4.57
			c-1.78,1.98-3.13,4.39-4.02,7.18c-0.92,2.87-1.33,5.64-1.33,8.95c0,2.04,0.15,3.92,0.47,5.73h-54.4V653.4
			c0-2.76-0.32-5.28-0.97-7.49c-0.64-2.2-1.53-4.16-2.64-5.82c-1.11-1.66-2.43-3.09-3.9-4.26c-1.45-1.14-3.02-2.1-4.65-2.84
			c-1.62-0.72-3.31-1.25-5.01-1.56c-1.69-0.33-3.36-0.49-4.97-0.49c-0.9,0-1.92,0.03-3.1,0.09c-1,0.06-2.03,0.14-3.18,0.26
			c-1.15,0.12-2.06,0.25-2.84,0.38c-0.18,0.02-0.58,0.11-1.48,0.31c-1.72,0.37-4.64,1.04-7,1.57l-1.33,0.3
			c-0.35,0.08-0.59,0.38-0.59,0.74v6.46c0,0.23,0.11,0.45,0.29,0.59c0.18,0.14,0.42,0.19,0.64,0.14c1.77-0.43,5.62-1.34,8.32-1.97
			c1.61-0.37,2.87-0.65,3.17-0.72c1.09-0.21,2.19-0.4,3.28-0.58c1.19-0.19,2.34-0.35,3.42-0.46c1.08-0.12,2-0.19,2.74-0.19
			c0.82,0,1.56,0.02,2.19,0.07c0.59,0.04,1.15,0.12,1.67,0.25c0.49,0.13,0.95,0.31,1.38,0.53c0.44,0.22,0.9,0.52,1.39,0.88
			c1.1,0.78,1.87,2.35,2.29,4.66c0.43,2.43,0.65,5.5,0.67,9.13v11.45h-30.92c-0.41,0-0.75,0.34-0.75,0.75v4.49
			c0,0.41,0.34,0.75,0.75,0.75h132.79c3.5,0,6.63-0.55,9.29-1.62c2.69-1.08,4.96-2.66,6.76-4.69c1.8-2.02,3.16-4.48,4.04-7.32
			c0.89-2.85,1.32-5.88,1.32-9.28C644.49,644.63,644.08,641.87,643.17,638.99"/>
		<path class="st64" d="M463.27,677.86c-0.14-0.15-0.34-0.23-0.54-0.23c-0.21,0-0.4,0.08-0.54,0.23l-4.78,4.99l-4.82-4.99
			c-0.15-0.15-0.34-0.23-0.55-0.23c-0.2-0.01-0.4,0.08-0.54,0.23l-5.15,5.38c-0.28,0.29-0.28,0.75,0,1.04l5.15,5.43
			c0.14,0.15,0.31,0.22,0.54,0.23c0.21,0,0.41-0.08,0.55-0.23l4.82-5.04l4.77,5.04c0.14,0.15,0.34,0.23,0.55,0.23
			c0.21,0,0.4-0.08,0.54-0.23l5.2-5.42c0.28-0.29,0.28-0.75,0-1.04L463.27,677.86z"/>
		<path class="st64" d="M372.52,622.67c0.14,0.15,0.34,0.24,0.54,0.24h0.01c0.21,0,0.4-0.08,0.54-0.24l4.82-5.03l4.77,5.03
			c0.15,0.15,0.34,0.24,0.55,0.24c0.21,0,0.41-0.08,0.55-0.24l5.19-5.42c0.28-0.29,0.28-0.75,0-1.04l-5.2-5.38
			c-0.14-0.15-0.34-0.23-0.54-0.23c-0.21,0-0.4,0.09-0.54,0.24l-4.78,4.99l-4.82-4.99c-0.14-0.15-0.34-0.23-0.54-0.23
			s-0.41,0.09-0.55,0.24l-5.14,5.38c-0.28,0.29-0.28,0.75-0.01,1.04L372.52,622.67z"/>
	</g>
</g>
</svg>
