<svg width="120" height="82" viewBox="0 0 120 82" fill="none" xmlns="http://www.w3.org/2000/svg">
<path fill-rule="evenodd" clip-rule="evenodd" d="M74.2065 30.2911C77.3187 29.2534 81.6519 27.8085 83.5339 27.9384C85.6996 28.0888 85.9083 29.0708 85.7406 29.9757C85.6436 30.4962 85.3452 31.1312 85.0525 31.7541C84.9002 32.078 84.7495 32.3987 84.6294 32.6984C85.0729 32.9926 85.41 33.3027 85.4676 33.6771C85.609 34.5987 84.5732 34.944 84.1501 34.2409C83.9604 33.9262 84.0246 33.4087 84.1984 32.8999C83.8196 32.6467 83.3263 32.3565 82.688 32.0119C82.6296 32.0634 82.5701 32.1153 82.5098 32.168C82.3463 32.3107 82.1767 32.4587 82.0058 32.617C81.9768 32.6439 81.9485 32.6702 81.9207 32.6959C81.7352 32.8679 81.5747 33.0167 81.4327 33.1544C81.6709 33.3037 81.863 33.5163 81.9877 33.7686C82.042 33.885 82.0675 34.0127 82.0623 34.141C82.057 34.2692 82.0211 34.3944 81.9576 34.5059C81.894 34.6174 81.8047 34.712 81.6971 34.7816C81.5895 34.8513 81.4668 34.8941 81.3393 34.9064C81.1307 34.908 80.9294 34.83 80.7762 34.6882C80.6229 34.5465 80.5293 34.3515 80.5143 34.143C80.505 33.8101 80.6142 33.4848 80.8224 33.2253C80.4566 32.9918 80.0596 32.7816 79.78 32.6335C79.6296 32.5539 79.5132 32.4923 79.454 32.4547C79.4401 32.4449 79.4268 32.4357 79.4138 32.4267C79.3977 32.4156 79.3819 32.4048 79.3655 32.3931C79.2472 32.4952 79.1265 32.5964 79.0112 32.6931C78.8307 32.8445 78.6634 32.9848 78.5392 33.1001C78.5277 33.11 78.5151 33.1208 78.5015 33.1324C78.3937 33.225 78.2246 33.3701 78.0514 33.5361C78.5676 34.009 78.5881 34.3411 78.5392 34.6002C78.3858 35.3867 77.4954 35.4291 77.155 34.7433C76.9573 34.3345 77.1391 33.9104 77.4485 33.5307C77.126 33.3063 76.7601 33.1022 76.4476 32.9279C76.3423 32.8692 76.243 32.8138 76.1535 32.7622C75.8155 33.0027 75.4431 33.2257 75.096 33.4336C75.0548 33.4583 75.014 33.4827 74.9736 33.507C75.1977 34.2922 75.2248 34.8627 74.7568 35.1887C73.8882 35.8003 72.9978 34.6467 73.8558 33.8621C74.0568 33.6754 74.2701 33.5026 74.4944 33.3447C74.2428 32.6326 73.9287 31.9443 73.5557 31.2879C73.5035 31.1925 73.4493 31.0971 73.3951 31.003C71.738 31.5108 70.0525 31.9201 68.3474 32.2288C65.6299 32.6946 63.1729 32.6072 62.0604 31.2243C61.9226 31.9606 61.5816 32.6433 61.076 33.1948C60.6331 33.6825 60.2662 34.0323 60.0619 34.2225C60.0587 35.1926 60.058 35.7889 60.058 35.7889C60.0414 36.0996 60.0883 36.4105 60.1958 36.7024C60.3034 36.9943 60.4692 37.2611 60.6833 37.4865C60.942 37.2011 61.2803 37.0005 61.6544 36.9107C62.2737 36.7165 63.4907 36.7245 63.5978 37.5952C63.7201 38.5751 62.3405 38.7288 61.2842 38.369C61.0977 38.3039 60.9222 38.211 60.7633 38.0934C60.6506 38.2683 60.5592 38.456 60.491 38.6527C60.2292 39.5555 60.0801 40.4874 60.0469 41.427L60.0464 41.4454C60.0397 41.6763 60.0293 42.0367 60.0389 47.6037C60.0409 47.8748 59.9352 47.9775 59.8506 48C59.7653 47.9775 59.6595 47.8747 59.6608 47.6037C59.6693 42.0009 59.6599 41.672 59.6533 41.4409L59.6529 41.427C59.6182 40.4875 59.4688 39.5558 59.208 38.6527C59.139 38.4562 59.0474 38.2686 58.935 38.0934C58.7761 38.2116 58.6 38.3046 58.4128 38.369C57.3605 38.7288 55.9796 38.5751 56.1012 37.5952C56.2077 36.7245 57.4253 36.7165 58.0453 36.9107C58.4195 37.0004 58.7581 37.2011 59.017 37.4865C59.2309 37.261 59.3968 36.9941 59.5045 36.7023C59.6123 36.4104 59.6596 36.0997 59.6437 35.7889C59.6437 35.7889 59.641 35.1927 59.6397 34.2225C59.4335 34.0323 59.0666 33.6825 58.6244 33.1948C58.1183 32.6436 57.7772 31.9607 57.6401 31.2242C56.5282 32.6071 54.0686 32.6947 51.3544 32.2287C49.649 31.9204 47.9632 31.5111 46.306 31.0031L46.285 31.0392C46.2369 31.1215 46.1883 31.2048 46.1428 31.288C45.771 31.9451 45.4567 32.6333 45.2034 33.3448C45.4284 33.5031 45.6428 33.6759 45.8452 33.8622C46.7052 34.6468 45.8129 35.8004 44.9436 35.1888C44.4749 34.8628 44.5027 34.2923 44.7275 33.5071C44.6976 33.4892 44.6674 33.4712 44.6371 33.4531C44.28 33.2397 43.8961 33.0103 43.5482 32.7623C43.467 32.8086 43.3782 32.858 43.2845 32.9101C42.964 33.0882 42.5854 33.2986 42.2519 33.5308C42.5612 33.9105 42.743 34.3346 42.5434 34.7434C42.2064 35.4292 41.316 35.3868 41.1626 34.6003C41.113 34.3412 41.1309 34.0091 41.6491 33.5362C41.4865 33.3804 41.3277 33.2431 41.2204 33.1503C41.1989 33.1317 41.1796 33.115 41.1626 33.1002C41.0411 32.9885 40.8798 32.8533 40.7057 32.7073C40.5853 32.6063 40.4588 32.5002 40.335 32.3932L40.2451 32.4548C40.186 32.4926 40.0685 32.5548 39.9165 32.6353C39.6369 32.7832 39.2409 32.9928 38.8782 33.2254C39.0866 33.4849 39.1961 33.8102 39.187 34.1431C39.1719 34.352 39.0778 34.5473 38.924 34.6891C38.7703 34.8309 38.5683 34.9087 38.3594 34.9065C38.232 34.8939 38.1096 34.8509 38.0022 34.7811C37.8948 34.7113 37.8057 34.6168 37.7423 34.5053C37.679 34.3939 37.6432 34.2689 37.6379 34.1407C37.6327 34.0125 37.6582 33.885 37.7122 33.7687C37.837 33.5166 38.0289 33.304 38.2668 33.1545C38.1439 33.0348 38.0063 32.9068 37.8511 32.7624C37.801 32.7158 37.749 32.6675 37.6951 32.6171C37.5318 32.4666 37.37 32.3255 37.2141 32.1894C37.1454 32.1294 37.0778 32.0704 37.0116 32.0121C36.3737 32.3566 35.8806 32.6468 35.5032 32.9C35.6757 33.4088 35.7411 33.9263 35.5501 34.241C35.1271 34.9441 34.0925 34.5987 34.2307 33.6772C34.289 33.3028 34.6273 32.9927 35.0695 32.6985C34.9495 32.3983 34.7989 32.077 34.6468 31.7525C34.3551 31.1301 34.0579 30.4959 33.9598 29.9759C33.7924 29.0708 34.0014 28.0888 36.1662 27.9384C38.0532 27.8082 42.406 29.2609 45.5174 30.2993C45.7161 30.3656 45.9098 30.4303 46.0974 30.4927C47.1163 28.9859 48.4414 27.7122 49.986 26.7549C48.6787 26.1579 47.4043 25.4908 46.1685 24.7565C45.5592 25.2537 45.0059 25.8163 44.5187 26.4342C44.7411 26.6628 44.9266 26.9248 45.0686 27.2107C45.4044 28.0217 44.5762 28.8626 43.8464 28.0363C43.6071 27.766 43.5027 27.2465 44.0262 26.4315C43.8084 26.1945 43.5687 25.9538 43.337 25.7212C43.2902 25.6742 43.2438 25.6276 43.1979 25.5814C43.0863 25.6498 42.8235 25.7644 42.5134 25.8996C42.2469 26.0158 41.9454 26.1473 41.6749 26.2778C41.755 26.4379 41.8167 26.6066 41.8588 26.7807C42.03 27.5599 41.4655 28.0118 40.9354 27.8826C40.3326 27.7362 40.2282 26.9464 40.6856 26.4679C40.8136 26.3466 40.9559 26.2414 41.1093 26.1545C41.0938 26.1323 41.0788 26.1104 41.0636 26.0884C41.0276 26.036 40.9909 25.9828 40.9467 25.9226C40.6549 25.5433 40.4055 25.2306 40.195 24.9667C40.1309 24.8863 40.0703 24.8104 40.0133 24.7385C39.9859 24.7509 39.958 24.7634 39.9296 24.7761C39.7096 24.8748 39.4611 24.9863 39.1871 25.1295C38.9676 25.2415 38.7806 25.3422 38.612 25.4403C38.6604 25.5222 38.7034 25.6072 38.7409 25.6947C39.1838 26.8059 38.3317 27.0842 37.98 27.0444C37.8415 27.0159 37.7127 26.9516 37.6064 26.858C37.5001 26.7645 37.42 26.6448 37.3739 26.5107C37.3278 26.3766 37.3174 26.2329 37.3435 26.0935C37.3697 25.9542 37.4317 25.8241 37.5233 25.716C37.6648 25.55 37.8319 25.4077 38.0182 25.2946C37.715 24.8778 37.319 24.4027 37.0017 24.0304C36.7351 24.1649 36.4339 24.294 36.1184 24.4292C35.9646 24.4951 35.8074 24.5625 35.6493 24.6327C35.685 25.1919 35.6215 25.6822 35.3485 25.9559C34.5123 26.7808 33.7739 25.6086 34.472 24.8666C34.7063 24.6428 34.98 24.4644 35.2791 24.3404C35.2276 24.0689 35.1561 23.7752 35.0807 23.4649C34.892 22.6887 34.678 21.8088 34.6875 20.9141C34.706 19.1821 37.362 18.9662 41.5978 21.4483C42.3288 21.8773 43.0598 22.3302 43.8111 22.7956C44.5756 23.2693 45.3612 23.7559 46.1893 24.2438C47.6397 23.0016 49.3008 22.0302 51.0935 21.3761C50.0901 20.5005 48.9954 19.4396 47.8969 18.375C47.6934 18.1778 47.4899 17.9805 47.2867 17.7843C46.5969 18.1563 45.9616 18.6221 45.3988 19.1683C45.9561 19.9065 46.1729 20.7539 45.4643 21.0004C44.7357 21.2562 44.0536 20.5339 44.5415 19.6626C44.6465 19.4926 44.7673 19.3329 44.9022 19.1856C44.7086 18.9266 44.4786 18.6084 44.2697 18.2797C44.0708 18.3547 43.8652 18.4194 43.6589 18.4842C43.3709 18.5749 43.0814 18.6659 42.8068 18.786C42.9137 19.0346 42.9642 19.3039 42.9549 19.5745C42.8544 20.5306 41.4457 20.6208 41.5099 19.4658C41.5316 19.0794 41.8814 18.8019 42.274 18.5925C42.0691 18.1386 41.8126 17.6503 41.6157 17.2773C41.315 17.3758 40.9867 17.4628 40.6717 17.5463C40.4741 17.5987 40.2816 17.6497 40.1045 17.7013C40.2445 18.0272 40.2504 18.3954 40.1211 18.7257C39.6643 19.5101 38.2953 19.1636 38.8486 17.9954C39.0281 17.7358 39.2867 17.5414 39.5857 17.4415C39.575 17.4193 39.567 17.3982 39.5587 17.3763C39.5547 17.3656 39.5505 17.3547 39.546 17.3434C39.5167 17.2786 39.4812 17.2029 39.4415 17.1183C39.3196 16.859 39.1589 16.5167 39.0218 16.1514C38.6371 16.2694 38.2233 16.3734 37.8577 16.4556C37.74 17.9484 37.1584 18.0902 36.6447 17.8981C36.2177 17.7383 35.8277 16.7981 36.958 16.2859C37.1462 16.2054 37.3405 16.1403 37.5391 16.0912C37.5303 15.2895 37.4778 14.489 37.3818 13.6931C37.1002 10.95 39.9195 11.8319 41.685 12.747C43.2173 13.5394 45.6625 15.6876 47.3937 17.2977C47.4259 17.2817 47.4566 17.2647 47.4877 17.2474C47.5223 17.2283 47.5573 17.2089 47.5953 17.1904C49.0489 16.4635 51.0022 16.2475 52.6719 16.3953C52.6105 16.2573 52.5483 16.1156 52.4842 15.9652C52.4388 15.86 52.3839 15.7307 52.32 15.5807C52.103 15.0705 51.7835 14.3193 51.3902 13.4493C50.5474 13.4611 49.7164 13.65 48.951 14.0039C48.9882 14.2186 49.0107 14.4355 49.0185 14.6532C49.0264 15.3331 48.6377 15.9712 47.9086 15.6339C47.6852 15.5299 47.0096 14.9739 48.2021 14.043C48.3038 13.9658 48.4119 13.8975 48.5253 13.8389C48.5017 13.7255 48.4763 13.6107 48.4505 13.4937C48.3953 13.244 48.3379 12.9844 48.2907 12.7078C48.075 12.7012 47.8443 12.6883 47.6119 12.6753C47.3358 12.6599 47.0575 12.6443 46.7994 12.6389C46.7982 12.6583 46.7975 12.6783 46.7967 12.6983C46.7953 12.7341 46.794 12.7697 46.7902 12.8012C46.6916 13.6818 46.0075 14.1954 45.3987 13.7601C45.2983 13.6715 45.2218 13.5591 45.1763 13.4331C45.1308 13.3071 45.1177 13.1716 45.1382 13.0391C45.1588 12.9067 45.2123 12.7816 45.2939 12.6755C45.3755 12.5693 45.4824 12.4854 45.6049 12.4317C45.8588 12.3244 46.1306 12.2662 46.4061 12.26C46.3765 11.8689 46.3069 11.3438 46.2423 10.8566L46.2415 10.85C45.9701 10.8555 45.6584 10.8476 45.2904 10.8382C45.2552 10.8373 45.2196 10.8364 45.1834 10.8355C45.0274 10.8322 44.8866 10.8341 44.7544 10.8401C44.7541 10.8493 44.7539 10.8585 44.7537 10.8675C44.7527 10.9111 44.7518 10.9519 44.7491 10.9832C44.6625 11.9314 44.0008 12.221 43.4436 11.9314C42.9021 11.6478 43.0218 10.6254 44.248 10.5055C44.26 10.5042 44.2727 10.503 44.2855 10.5018C44.3059 10.4999 44.3267 10.498 44.3459 10.4956C44.3431 10.2984 44.3347 10.0784 44.3254 9.83709C44.321 9.72312 44.3164 9.60441 44.3121 9.48111C44.3029 9.2757 44.3029 9.0915 44.3029 8.9172C43.868 8.88245 43.4353 8.82428 43.0066 8.74295C42.5809 9.874 42.1651 9.98337 41.8366 9.94758C41.1551 9.874 40.7737 8.68595 41.9027 8.35997C42.1932 8.2973 42.4917 8.28164 42.7871 8.31358C42.8774 7.99995 42.9601 7.65493 43.0441 7.30438C43.355 6.0071 43.684 4.63419 44.4833 4.49697C46.3831 4.17155 48.4713 7.15523 49.7352 9.12001C50.4812 10.4154 51.1398 11.7595 51.7064 13.1433C53.127 13.0831 54.5455 13.3058 55.8798 13.7985C57.2141 14.2912 58.4377 15.0441 59.48 16.0137C59.0715 14.3439 57.6609 10.5598 54.9586 9.89389C54.9016 10.1551 54.8112 10.4079 54.6896 10.646C54.1918 11.5258 52.9497 11.131 53.1137 10.253C53.1963 9.81572 53.7914 9.45726 54.6413 9.5129C54.6993 9.19983 54.7368 8.88331 54.7537 8.56535C54.7559 8.52378 54.7587 8.48721 54.7615 8.45073C54.7629 8.43258 54.7643 8.41446 54.7656 8.39576C54.6298 8.37931 54.4876 8.36068 54.3421 8.34162C54.0131 8.29851 53.6674 8.25323 53.3424 8.22612C53.1712 9.05505 52.877 9.31277 52.4388 9.36184C51.4882 9.46317 51.3764 8.18505 52.1466 7.91204C52.4122 7.84962 52.6853 7.82531 52.9577 7.83985C53.033 7.38795 53.0766 6.88371 53.1071 6.45894C52.6219 6.36936 52.1988 6.30307 51.832 6.26072C51.7789 6.46863 51.6984 6.6685 51.5926 6.85502C51.1232 7.59054 50.0286 7.55146 50.0815 6.63771C50.1244 5.94142 50.8575 5.81939 51.0532 5.81275C51.19 5.80746 51.3374 5.81077 51.4868 5.8187C51.5132 5.6829 51.533 5.53782 51.5489 5.37476C51.5926 4.92297 51.6329 4.53064 51.6758 4.19269C51.2997 4.12513 50.9183 4.05752 50.5627 4.01447C50.4682 4.25085 50.3434 4.47382 50.1912 4.6777C49.5711 5.46556 48.614 4.98316 48.725 4.28547C48.7852 3.88661 48.9947 3.73085 49.4839 3.63146C49.7805 3.58766 50.0816 3.58233 50.3796 3.61561C50.4351 3.40965 50.4912 3.19024 50.5487 2.96572C50.8066 1.95787 51.0909 0.846966 51.4623 0.387387C51.9554 -0.22552 53.3799 -0.428918 55.7206 2.2493C57.9258 4.77312 59.0892 8.61755 59.5003 10.7976C59.6613 11.6341 59.7783 12.4786 59.8507 13.3274C59.9213 12.4784 60.0378 11.6339 60.1997 10.7976C60.6096 8.61755 61.7743 4.77312 63.9789 2.2493C66.3202 -0.428918 67.7453 -0.22552 68.239 0.387387C68.6107 0.848521 68.8963 1.96539 69.1548 2.97594C69.2113 3.1969 69.2665 3.41278 69.3211 3.61561C69.6184 3.58229 69.9188 3.58762 70.2148 3.63146C70.7053 3.73085 70.9135 3.88661 70.9757 4.28547C71.0834 4.98316 70.1289 5.46556 69.5082 4.6777C69.3572 4.47317 69.2326 4.25033 69.1374 4.01447C68.7804 4.05752 68.3996 4.12513 68.0235 4.19269C68.0679 4.53064 68.1076 4.92286 68.1519 5.37476C68.1652 5.52369 68.1859 5.67185 68.214 5.8187C68.3647 5.81077 68.5088 5.80746 68.6463 5.81275C68.844 5.81939 69.5744 5.94128 69.618 6.63771C69.6722 7.55146 68.5762 7.59051 68.1076 6.85502C68.0014 6.66932 67.9209 6.47005 67.8682 6.26267C67.5033 6.30307 67.0782 6.36936 66.5937 6.45876C66.6228 6.88336 66.6671 7.3876 66.7424 7.83967C67.0146 7.82492 67.2875 7.84923 67.5529 7.91186C68.325 8.18488 68.214 9.463 67.2615 9.36166C66.8245 9.31259 66.527 9.05488 66.3605 8.22595C66.0307 8.2533 65.6806 8.29915 65.3488 8.3426C65.2063 8.36125 65.0673 8.37947 64.9346 8.39558C64.9386 8.45188 64.9424 8.50293 64.9459 8.56518C64.9646 8.88301 65.0023 9.19943 65.0589 9.51272C65.9103 9.45705 66.5033 9.81554 66.5872 10.2528C66.7524 11.1308 65.5102 11.5256 65.0107 10.6458C64.889 10.4078 64.7988 10.155 64.7423 9.89372C62.0401 10.5596 60.6274 14.3438 60.2222 16.0135C61.2644 15.0438 62.488 14.2908 63.8223 13.7981C65.1566 13.3054 66.5751 13.0828 67.9958 13.1431C68.5622 11.7596 69.2201 10.4156 69.9651 9.12001C71.229 7.15537 73.3139 4.17166 75.2196 4.49697C76.0138 4.63383 76.3428 5.9999 76.6547 7.29424C76.74 7.64826 76.8239 7.99691 76.9158 8.31358C77.2103 8.28188 77.508 8.29754 77.7976 8.35997C78.9287 8.68595 78.5439 9.874 77.8637 9.94758C77.5345 9.98337 77.1194 9.874 76.6924 8.74295C76.2639 8.82447 75.8314 8.88264 75.3967 8.9172C75.3987 9.09164 75.3967 9.2757 75.3895 9.48111C75.3861 9.57166 75.3826 9.65975 75.3792 9.74529C75.3681 10.0228 75.3581 10.2737 75.3551 10.4956C75.3739 10.498 75.3951 10.5 75.4161 10.502C75.4285 10.5031 75.4407 10.5043 75.4522 10.5055C76.6798 10.6254 76.7994 11.6478 76.2587 11.9314C75.6995 12.221 75.0378 11.9314 74.9519 10.9832C74.9491 10.9569 74.9483 10.9237 74.9473 10.8879C74.947 10.8724 74.9465 10.8563 74.946 10.8401C74.8144 10.8341 74.673 10.832 74.5169 10.8355L74.4296 10.8377C74.0528 10.8474 73.7336 10.8556 73.456 10.85C73.4446 10.9415 73.4329 11.0344 73.4211 11.1275C73.3699 11.5319 73.3182 11.9406 73.294 12.26C73.569 12.2665 73.8403 12.3247 74.0938 12.4317C74.2166 12.4852 74.3238 12.5689 74.4056 12.6751C74.4874 12.7813 74.541 12.9065 74.5615 13.0391C74.582 13.1717 74.5688 13.3073 74.5229 13.4334C74.4771 13.5594 74.4002 13.6718 74.2994 13.7601C73.6913 14.1954 73.0085 13.6818 72.9093 12.8012C72.9039 12.7473 72.9012 12.6931 72.9014 12.6389C72.6422 12.6443 72.3628 12.6599 72.0858 12.6754C71.854 12.6883 71.6239 12.7012 71.4088 12.7078C71.3605 12.9933 71.3008 13.2608 71.2434 13.5179C71.2191 13.6266 71.1953 13.7334 71.1729 13.8389C71.2872 13.8969 71.3961 13.9652 71.4981 14.043C72.6899 14.9739 72.015 15.5299 71.7916 15.6339C71.0631 15.9712 70.6745 15.3331 70.6837 14.6532C70.6896 14.4355 70.7117 14.2184 70.7498 14.0039C69.9846 13.6502 69.1539 13.4613 68.3113 13.4493C67.9142 14.3253 67.5928 15.0808 67.3757 15.5912C67.3137 15.7368 67.2603 15.8624 67.216 15.9652C67.1644 16.0876 67.1127 16.2043 67.0625 16.3177C67.051 16.3437 67.0396 16.3696 67.0283 16.3953C68.6987 16.2475 70.652 16.4636 72.1043 17.1904C72.1433 17.2098 72.1806 17.2302 72.2173 17.2503C72.247 17.2665 72.2763 17.2826 72.3059 17.2977C74.0397 15.6876 76.4829 13.5394 78.0171 12.747C79.7795 11.8319 82.5985 10.95 82.3189 13.6931C82.2219 14.4889 82.1694 15.2895 82.1616 16.0912C82.36 16.1402 82.5541 16.2053 82.742 16.2859C83.8717 16.7981 83.4837 17.7383 83.0547 17.8981C82.5437 18.0902 81.9613 17.9484 81.8417 16.4556C81.4761 16.3734 81.063 16.2694 80.6769 16.1514C80.5418 16.5115 80.3844 16.8492 80.2641 17.1072C80.2226 17.1962 80.1856 17.2757 80.1554 17.3434C80.1467 17.3632 80.1395 17.3816 80.1323 17.4C80.127 17.4137 80.1217 17.4273 80.1157 17.4415C80.4141 17.5416 80.672 17.7359 80.8508 17.9954C81.4047 19.1636 80.0364 19.5102 79.5796 18.7257C79.4499 18.3954 79.4561 18.027 79.597 17.7013C79.4199 17.6499 79.2278 17.599 79.0305 17.5468C78.7145 17.4631 78.3852 17.376 78.0832 17.2773L78.0549 17.3312C77.8626 17.6977 77.6201 18.1601 77.4248 18.5925C77.8175 18.8019 78.1665 19.0795 78.189 19.4658C78.2544 20.6208 76.8478 20.5306 76.7433 19.5745C76.7359 19.304 76.7866 19.0351 76.8921 18.786C76.6181 18.6659 76.3288 18.5748 76.041 18.4841C75.835 18.4193 75.6297 18.3546 75.4312 18.2797C75.2216 18.6083 74.9923 18.9265 74.7966 19.1856C74.9336 19.3315 75.055 19.4914 75.1589 19.6626C75.648 20.5339 74.9646 21.2562 74.2361 21.0004C73.5274 20.7539 73.7444 19.9065 74.2995 19.1696C73.7386 18.6216 73.1038 18.1553 72.4136 17.7842C72.2278 17.9639 72.0416 18.1444 71.8554 18.3249C70.7401 19.4064 69.6259 20.4869 68.6068 21.3761C70.476 21.9862 72.2277 23.1875 73.5109 24.2438C74.3391 23.7561 75.1239 23.2695 75.8876 22.7961C76.6388 22.3304 77.3695 21.8773 78.1011 21.4483C82.3383 18.9662 84.9943 19.1821 85.0128 20.9142C85.0213 21.8065 84.8086 22.6841 84.6208 23.4589C84.545 23.7714 84.4733 24.0672 84.4218 24.3405C84.7215 24.464 84.9957 24.6424 85.2301 24.8666C85.9242 25.6087 85.1865 26.7809 84.3517 25.9559C84.0786 25.6823 84.0165 25.192 84.0489 24.6327C83.8854 24.5597 83.7223 24.4897 83.5627 24.4211C83.2547 24.2889 82.9597 24.1623 82.6998 24.0304C82.3825 24.4028 81.9852 24.8779 81.6805 25.2947C81.8678 25.4065 82.0351 25.549 82.1756 25.7161C82.2674 25.8239 82.3297 25.9539 82.3561 26.0932C82.3826 26.2325 82.3724 26.3763 82.3264 26.5104C82.2805 26.6446 82.2005 26.7644 82.0943 26.858C81.9881 26.9517 81.8593 27.016 81.7208 27.0445C81.3691 27.0843 80.5151 26.806 80.9612 25.6948C80.9968 25.6064 81.0399 25.5213 81.0902 25.4404C80.9182 25.3423 80.7338 25.2416 80.5143 25.1296C80.231 24.9812 79.9737 24.8668 79.7457 24.7655C79.7253 24.7564 79.7052 24.7475 79.6854 24.7386C79.6178 24.8242 79.5452 24.9156 79.4674 25.0135C79.2656 25.2674 79.0286 25.5655 78.7533 25.9227C78.7171 25.971 78.6866 26.0149 78.657 26.0574C78.6342 26.0901 78.6119 26.1221 78.5881 26.1546C78.7427 26.2409 78.8859 26.3461 79.0144 26.468C79.4719 26.9465 79.3675 27.7363 78.7646 27.8827C78.2358 28.0118 77.6712 27.56 77.8412 26.7808C77.8831 26.6064 77.9454 26.4376 78.0269 26.2779C77.7567 26.1478 77.4558 26.0168 77.1896 25.9008C76.878 25.7651 76.6139 25.6501 76.5019 25.5815C76.4581 25.6256 76.4137 25.67 76.369 25.7148C76.1348 25.9494 75.8922 26.1925 75.6724 26.4323C76.1953 27.2466 76.0928 27.7661 75.8522 28.0364C75.1231 28.8626 74.2954 28.0218 74.6313 27.2108C74.7734 26.9254 74.9585 26.6635 75.1799 26.4343C74.6942 25.8153 74.141 25.2526 73.5307 24.7566C72.2954 25.4911 71.0215 26.1582 69.7145 26.755C71.2582 27.7126 72.5828 28.9863 73.6013 30.4927C73.7969 30.4277 73.999 30.3603 74.2065 30.2911ZM74.9095 27.56C74.848 27.9397 74.9313 28.1206 75.1937 28.1663C75.439 28.21 75.9612 27.9483 75.4383 26.8437C75.4231 26.8126 75.4059 26.7825 75.3867 26.7536C75.1643 26.9793 75.0004 27.2562 74.9095 27.56ZM77.0175 24.3769C77.2343 23.6036 76.2852 23.4347 76.0597 24.1065C75.9182 24.5319 76.1754 24.846 76.5019 25.0727C76.7162 24.8755 76.8912 24.6394 77.0175 24.3769ZM78.3435 27.6283C78.5907 27.8396 79.4488 27.4819 78.7534 26.7179C78.645 26.617 78.5228 26.5322 78.3905 26.4661C77.9747 27.1757 78.1406 27.4527 78.3435 27.6283ZM78.9404 23.4288C78.9226 23.7017 79.2378 23.9701 79.5868 24.1827C79.8527 23.8164 80.0384 23.4565 79.95 23.1683C79.7349 22.4699 78.9847 22.7363 78.9404 23.4288ZM81.2058 26.1428C81.1317 26.8517 81.7703 26.9803 81.964 26.7146C82.2204 26.3601 82.0889 26.0718 81.4345 25.6524C81.3271 25.7994 81.2495 25.966 81.2058 26.1428ZM82.1014 22.6018C81.9314 22.996 82.2263 23.3068 82.6045 23.5368C82.8229 23.3099 82.9985 23.0452 83.1227 22.7555C83.251 22.1897 82.4465 21.7974 82.1014 22.6018ZM84.5558 25.7624C84.4569 25.6198 84.3882 25.4584 84.3541 25.2881ZM84.3541 25.2881C84.32 25.1178 84.3212 24.9423 84.3575 24.7725ZM84.3575 24.7725C84.3765 24.7817 84.3955 24.7908 84.4145 24.7999ZM84.4145 24.7999C84.5053 24.8437 84.5963 24.8874 84.6854 24.9329ZM84.5558 22.0174C85.1058 19.1722 80.9718 20.0938 77.2019 22.4613C77.1061 22.5212 76.9542 22.6198 76.7551 22.7489C76.1483 23.1427 75.1035 23.8206 73.8752 24.5526C74.1773 24.8116 74.4509 25.0568 74.679 25.2748C74.9612 25.5386 75.2225 25.8242 75.4603 26.1289C75.7022 25.8778 75.9594 25.622 76.2007 25.3828C75.8305 25.1204 75.383 24.6407 75.9277 23.8383C76.3426 23.2241 77.6455 23.2784 77.4055 24.4545C77.2676 24.7626 77.0652 25.0374 76.812 25.2602C76.9354 25.3237 77.0539 25.377 77.1514 25.4209C77.2319 25.4571 77.298 25.4869 77.3408 25.5106C77.4075 25.5461 77.516 25.5987 77.6475 25.6626C77.813 25.7429 78.0149 25.8409 78.216 25.9446C78.3498 25.7352 78.4964 25.5466 78.6258 25.3801C78.6708 25.3222 78.7138 25.2669 78.7534 25.2143C78.8673 25.068 78.9984 24.9108 79.1325 24.7501C79.186 24.6859 79.2399 24.6212 79.2935 24.5564C78.7911 24.3019 78.5498 24.0442 78.6556 23.3756C78.6697 23.1802 78.7498 22.9954 78.8826 22.8516C79.0154 22.7078 79.193 22.6136 79.3863 22.5844C79.5796 22.5552 79.7771 22.5927 79.9463 22.6909C80.1155 22.789 80.2463 22.9419 80.3173 23.1245C80.4952 23.5485 80.3887 23.8222 79.9597 24.392C80.0731 24.4499 80.1785 24.4995 80.263 24.5393C80.3352 24.5732 80.3922 24.6 80.4257 24.6187C80.4968 24.655 80.5701 24.692 80.6447 24.7296C80.8684 24.8425 81.1033 24.9611 81.3234 25.0838C81.5862 24.7236 81.9297 24.3268 82.249 23.9579C82.2839 23.9176 82.3185 23.8777 82.3526 23.8381C82.1869 23.7604 82.041 23.6461 81.9258 23.5036C81.8106 23.3612 81.7292 23.1944 81.6876 23.0158C81.6229 22.5056 82.1312 21.7774 82.7836 21.9172C83.6231 22.0942 83.6423 22.7985 83.2199 23.4081C83.192 23.446 83.1264 23.5248 83.038 23.631C83.0135 23.6605 82.9872 23.6921 82.9595 23.7255C83.1516 23.8141 83.3352 23.8855 83.465 23.9359C83.5148 23.9553 83.5566 23.9715 83.5881 23.9846C83.6699 24.0197 83.7589 24.0564 83.8521 24.0948C83.9313 24.1275 84.0136 24.1614 84.0971 24.1967C84.1689 23.6788 84.2975 23.1382 84.4067 22.6795C84.4664 22.4286 84.5203 22.2022 84.5558 22.0174ZM82.5899 17.6475C82.3321 17.5561 82.2165 17.1042 82.1755 16.5304ZM82.1755 16.5304C82.2204 16.5376 82.2634 16.5476 82.3064 16.5576ZM74.5069 19.5637C74.1004 20.0859 73.9741 20.826 74.4732 20.8598C74.8877 20.8883 75.1019 20.3436 74.7442 19.7055C74.6955 19.6231 74.64 19.5448 74.5783 19.4716C74.5532 19.5021 74.5254 19.5372 74.5069 19.5637ZM75.2935 17.7151C75.436 17.451 75.5402 17.1678 75.6029 16.8742C75.7001 16.3713 74.7767 15.8532 74.6265 16.8524C74.571 17.2221 74.8903 17.5017 75.2935 17.7151ZM77.1226 19.8155C77.4022 20.4516 78.2543 19.9461 77.7558 19.3795C77.6122 19.2236 77.4465 19.0896 77.264 18.982C77.1319 19.2384 77.0824 19.5297 77.1226 19.8155ZM77.9165 16.7258C78.031 16.5198 78.1259 16.3035 78.2001 16.0798L78.2001 16.0799C78.4076 15.284 77.3407 14.8321 77.1788 15.7417C77.0849 16.2693 77.4346 16.5363 77.9165 16.7258ZM80.1772 18.921C80.6168 19.1284 81.0359 18.3677 80.2532 17.9417C80.1641 17.8953 80.072 17.8548 79.9776 17.8205C79.809 18.3994 79.8823 18.7819 80.1772 18.921ZM80.4078 15.4686C80.4291 15.4083 80.4506 15.3474 80.4707 15.284C80.9334 13.8415 79.4719 13.8899 79.5895 14.8818C79.6345 15.2416 79.9379 15.4616 80.355 15.6219C80.3717 15.5705 80.3897 15.5198 80.4078 15.4686ZM81.9157 14.316C82.3143 10.655 77.4835 13.22 75.1613 15.2284C74.3795 15.906 73.5432 16.696 72.6949 17.5122C73.3551 17.896 73.9662 18.3591 74.5147 18.891C74.7107 18.6425 74.894 18.3842 75.064 18.1171C74.8466 18.0161 74.6474 17.8798 74.4742 17.7137C74.0749 17.3102 74.3149 16.0341 75.1908 16.0453C76.0144 16.0592 76.1142 16.8311 75.9179 17.354C75.846 17.5377 75.7609 17.7159 75.6634 17.8874C75.8584 17.9678 76.0537 18.0363 76.221 18.095C76.3514 18.1408 76.4648 18.1805 76.5478 18.2154L76.5845 18.2293C76.7132 18.2781 76.8738 18.339 77.0443 18.4115C77.224 18.0078 77.4542 17.5828 77.6639 17.1955L77.6987 17.1313C77.4069 17.0419 77.157 16.8502 76.9947 16.5913C76.6531 15.8134 77.1826 14.8274 77.9071 15.0561C78.8728 15.3603 78.5906 16.2103 78.3301 16.7861C78.3207 16.8105 78.3094 16.8342 78.2964 16.857C78.3845 16.8843 78.4742 16.9102 78.5636 16.936C78.6676 16.966 78.7714 16.9959 78.8723 17.028C78.9187 17.0417 78.9713 17.0568 79.0288 17.0734C79.2237 17.1295 79.4751 17.2017 79.7303 17.2904C79.8007 17.0967 79.8813 16.8888 79.9672 16.6671C80.0492 16.4557 80.136 16.2318 80.2234 15.9956C79.9288 15.9153 79.6636 15.7512 79.4599 15.5232C79.1116 14.9355 79.4633 13.5069 80.4707 14.0197C81.0636 14.3239 81.02 15.0475 80.8058 15.7664C81.0419 15.8323 81.2927 15.8877 81.5419 15.9428C81.6359 15.9636 81.7297 15.9843 81.8225 16.0056C81.8186 15.441 81.8497 14.8767 81.9157 14.316ZM76.0596 11.8C75.5308 11.8418 75.3828 11.5231 75.3583 10.879C76.6017 11.0632 76.3803 11.7748 76.0596 11.8ZM77.7439 9.66382C78.4162 9.82681 78.3217 8.96276 77.929 8.79511C77.6461 8.67952 77.3367 8.64512 77.0353 8.69576C77.2166 9.21324 77.4326 9.59159 77.7439 9.66382ZM71.6601 15.4814C72.0408 15.3191 71.7791 14.6637 71.4307 14.4133C71.3459 14.3517 71.2382 14.2782 71.1094 14.2C71.1065 14.22 71.1021 14.2403 71.0977 14.2609C71.0924 14.286 71.0869 14.3116 71.0837 14.3378C70.9759 15.2071 71.2271 15.663 71.6601 15.4814ZM70.2812 11.0798C69.8046 11.4475 70.2257 12.3414 70.9217 12.3222H70.9215C70.9482 12.3222 70.9793 12.3203 71.0105 12.3185C71.0288 12.3174 71.0472 12.3164 71.0647 12.3156C71.1001 12.1019 71.1176 11.8855 71.1167 11.6688C71.1034 11.156 70.5622 10.8651 70.2812 11.0798ZM72.4414 10.2853C72.6412 10.3831 72.8617 10.4306 73.0839 10.4238H73.0838C73.1082 10.231 73.1281 10.0534 73.1388 9.91559C73.1857 9.2033 72.7475 9.01179 72.4335 9.06681C72.1162 9.11984 71.9536 9.90565 72.4414 10.2853ZM74.3538 13.324C74.4212 13.0981 74.2995 12.78 73.6689 12.6714H73.6688C73.5399 12.6519 73.4099 12.6412 73.2796 12.6395C73.308 13.5195 74.1634 13.9813 74.3538 13.324ZM76.3533 7.61569C76.0148 6.2561 75.5812 4.51466 73.5996 5.52652H73.5993C71.7657 6.46464 69.7443 10.3357 68.4426 13.1628C69.2516 13.2125 70.0486 13.3831 70.8072 13.669C70.8344 13.5246 70.8641 13.3785 70.8936 13.2327C70.9291 13.0577 70.9645 12.8832 70.9955 12.7129C70.8851 12.7096 70.784 12.703 70.6941 12.693C69.9769 12.6056 69.3291 11.5328 70.2255 10.8735C70.7159 10.5139 71.5184 10.8088 71.4979 11.8438C71.4947 11.9592 71.4837 12.0637 71.473 12.1671C71.4685 12.2097 71.4641 12.2521 71.4602 12.295L71.4648 12.2947C71.9001 12.267 72.4171 12.2341 72.898 12.24C72.9151 11.8 72.9746 11.2918 73.0328 10.834C72.7197 10.8422 72.4139 10.7384 72.1702 10.5411C71.6975 10.066 71.7914 8.9588 72.4961 8.82693C72.619 8.79942 72.7465 8.79882 72.8697 8.82516C72.993 8.8515 73.1091 8.90417 73.2102 8.97958C73.3113 9.05498 73.3949 9.15135 73.4555 9.26211C73.5161 9.37287 73.5521 9.49541 73.5611 9.6214C73.5704 9.89704 73.5525 10.1729 73.5076 10.445C73.6511 10.4478 73.8019 10.4496 73.9567 10.4515C74.279 10.4553 74.6187 10.4594 74.946 10.4729C74.9464 10.3879 74.9472 10.2965 74.948 10.1995C74.9512 9.83896 74.955 9.40212 74.942 8.93894C74.9206 8.93991 74.9005 8.94135 74.8807 8.94278C74.8473 8.94517 74.8145 8.94753 74.7768 8.94753C73.497 8.97072 73.3456 7.92118 73.5413 7.50966C73.6388 7.31527 73.7993 7.15988 73.9966 7.06898C74.1938 6.97808 74.416 6.95707 74.6267 7.00939C74.9903 7.08561 75.3089 7.33676 75.3809 8.47111C75.5497 8.45406 75.727 8.43305 75.9076 8.41166C76.1216 8.3863 76.3402 8.36041 76.5542 8.33994C76.4921 8.13915 76.428 7.91388 76.3645 7.66075L76.3533 7.61569ZM74.6267 8.51152C74.7128 8.51552 74.8145 8.5135 74.9216 8.50957H74.9214C74.9155 8.38501 74.9095 8.26305 74.8964 8.14113C74.7999 7.00939 74.0767 7.11941 73.8447 7.46529C73.6689 7.727 73.893 8.4691 74.6267 8.51152ZM66.1959 10.8068C65.907 11.0235 65.406 10.8876 65.1303 9.82879C65.9731 9.78564 66.6216 10.4927 66.1959 10.8068ZM67.2158 9.00185C67.8359 9.25167 68.136 8.66724 67.6429 8.34787C67.3836 8.22731 67.0972 8.17748 66.8126 8.20342C66.9071 8.61355 67.0347 8.92701 67.2158 9.00185ZM69.4342 6.68143C69.4805 7.14261 68.684 7.49516 68.3079 6.22355C68.9999 6.18714 69.3946 6.30374 69.4342 6.68143ZM70.6836 4.24107C70.9837 4.70357 69.9689 5.28268 69.4428 3.98265C70.0331 3.93498 70.5097 3.97337 70.6836 4.24107ZM50.2578 3.98265C49.6682 3.93505 49.1903 3.9733 49.0184 4.24107H49.0185C48.7164 4.70357 49.7311 5.28268 50.2578 3.98265ZM51.3921 6.22355C50.7007 6.18714 50.3054 6.30586 50.2677 6.68143H50.2678C50.2196 7.14275 51.0141 7.49509 51.3921 6.22355ZM52.0591 8.34787C51.562 8.66724 51.8641 9.25167 52.4841 9.00185H52.4842C52.664 8.92701 52.7936 8.61372 52.8867 8.20342C52.6029 8.1773 52.3174 8.22715 52.0591 8.34787ZM54.571 9.82869C53.7248 9.7856 53.0784 10.4926 53.5041 10.8067L53.5042 10.8068C53.7931 11.0236 54.2935 10.8876 54.571 9.82869ZM41.7697 8.79521C41.3777 8.96286 41.2845 9.82691 41.9554 9.66393C42.2675 9.59159 42.4849 9.21324 42.6654 8.69586C42.3634 8.64531 42.0533 8.6797 41.7697 8.79521ZM44.3417 10.8791C43.0984 11.0633 43.3191 11.7749 43.6404 11.8001V11.8C44.1692 11.8418 44.3173 11.5231 44.3417 10.8791ZM46.0313 12.6715C45.3987 12.7801 45.2791 13.0981 45.3452 13.3241V13.324C45.5362 13.9813 46.3922 13.5195 46.422 12.6396C46.2912 12.6412 46.1606 12.6518 46.0313 12.6715ZM47.2682 9.06691C46.9536 9.0119 46.5159 9.2034 46.5629 9.9157L46.5628 9.91559C46.5734 10.0534 46.5919 10.231 46.6165 10.4239C46.8385 10.4307 47.0587 10.3831 47.2583 10.2854C47.7469 9.90575 47.5835 9.11994 47.2682 9.06691ZM48.269 14.4134C47.9226 14.6639 47.6602 15.3192 48.0403 15.4815L48.0402 15.4814C48.4731 15.663 48.725 15.207 48.6141 14.3379C48.6111 14.3022 48.6045 14.2676 48.598 14.2339C48.5958 14.2225 48.5936 14.2113 48.5916 14.2001C48.4613 14.2783 48.3536 14.3531 48.269 14.4134ZM49.4211 11.0798C49.1362 10.8651 48.5967 11.156 48.5829 11.6688C48.582 11.8855 48.5997 12.1019 48.6358 12.3155C48.6525 12.3163 48.67 12.3173 48.6875 12.3184C48.7191 12.3203 48.7509 12.3222 48.7785 12.3222C49.472 12.3414 49.8977 11.4475 49.4211 11.0798ZM48.8063 13.2381C48.8354 13.3821 48.8646 13.5265 48.8922 13.6692C49.6515 13.3832 50.4492 13.2127 51.2588 13.1632C49.9559 10.3358 47.9352 6.46492 46.1008 5.52669C44.119 4.51539 43.6867 6.25444 43.3488 7.61364L43.3371 7.66093C43.2723 7.91405 43.2095 8.13933 43.1461 8.34012C43.3589 8.36053 43.5769 8.3864 43.7904 8.41172C43.9714 8.43319 44.149 8.45426 44.3174 8.47129C44.3908 7.33693 44.7087 7.08579 45.0742 7.00956C45.2851 6.95732 45.5075 6.97836 45.7049 7.06923C45.9023 7.16011 46.0631 7.31544 46.161 7.50983C46.356 7.92136 46.2046 8.9709 44.9222 8.9477C44.8846 8.9477 44.8515 8.94531 44.818 8.94289C44.7985 8.94149 44.7789 8.94007 44.7583 8.93911C44.7454 9.39767 44.7494 9.83042 44.7527 10.1889C44.7537 10.2899 44.7545 10.3849 44.755 10.473C45.0817 10.4596 45.4211 10.4555 45.7428 10.4517C45.8975 10.4498 46.0482 10.448 46.1914 10.4452C46.1497 10.1728 46.132 9.89714 46.1385 9.62157C46.1479 9.49567 46.1841 9.37326 46.2448 9.26263C46.3055 9.15201 46.3892 9.05576 46.4903 8.98042C46.5913 8.90507 46.7074 8.85238 46.8305 8.82593C46.9537 8.79948 47.0811 8.79988 47.2041 8.8271C47.9087 8.959 48.0013 10.0662 47.53 10.5413C47.2864 10.7388 46.9805 10.8426 46.6673 10.8341C46.7242 11.292 46.785 11.8002 46.8015 12.2402C47.2823 12.2342 47.7957 12.2668 48.2318 12.2945L48.2419 12.2952C48.2387 12.2654 48.2353 12.2358 48.2319 12.2063C48.2186 12.09 48.2054 11.9739 48.2022 11.8439C48.181 10.8088 48.9841 10.5139 49.472 10.8737C50.3696 11.533 49.7232 12.6058 49.0059 12.6932C48.9167 12.7031 48.8142 12.7096 48.7025 12.7131C48.7349 12.8851 48.7706 13.0613 48.8063 13.2381ZM44.8018 8.14113C44.7919 8.26305 44.7846 8.38501 44.778 8.50957C44.8843 8.5135 44.9882 8.51552 45.0741 8.51152C45.8059 8.4691 46.0313 7.727 45.8555 7.46529C45.6221 7.11941 44.9016 7.00939 44.8018 8.14113ZM37.393 16.5575C36.0908 16.8431 36.3658 17.9158 37.1101 17.6475C37.3679 17.5561 37.4849 17.1042 37.5233 16.5304C37.479 16.5376 37.4354 16.5476 37.393 16.5575ZM40.1092 14.8818C40.2282 13.8899 38.768 13.8415 39.2287 15.284C39.267 15.4013 39.3054 15.51 39.3451 15.6219C39.7615 15.4616 40.0656 15.2416 40.1092 14.8818ZM39.4462 17.9417C38.6642 18.3677 39.0833 19.1284 39.5242 18.921C39.8183 18.7819 39.8917 18.3995 39.7219 17.8204C39.6277 17.8555 39.5357 17.896 39.4462 17.9417ZM42.5213 15.7419C42.3573 14.8322 41.2938 15.2841 41.4993 16.0799C41.5732 16.3041 41.6688 16.5206 41.7849 16.7261C42.2661 16.5364 42.6158 16.2694 42.5213 15.7419ZM41.9449 19.3796C41.4458 19.9462 42.2985 20.4517 42.5755 19.8156V19.8155C42.6187 19.5297 42.5691 19.2375 42.434 18.9821C42.2526 19.0901 42.0878 19.2241 41.9449 19.3796ZM45.0741 16.8525C44.9221 15.8533 43.9987 16.3714 44.0958 16.8743V16.8742C44.1599 17.1677 44.2645 17.4507 44.4065 17.7152C44.8098 17.5018 45.1277 17.2222 45.0741 16.8525ZM44.9545 19.7056C44.5969 20.3437 44.8124 20.8884 45.2268 20.8599L45.2268 20.8598C45.7259 20.826 45.5983 20.0859 45.1931 19.5638C45.1739 19.5373 45.1468 19.5022 45.123 19.4724C45.0612 19.5458 45.0048 19.6238 44.9545 19.7056ZM44.6352 18.1173C44.8203 18.4103 45.0173 18.672 45.1838 18.8893L45.1839 18.8892C45.7341 18.3598 46.345 17.8976 47.0037 17.5123C46.1575 16.6959 45.3227 15.9061 44.5374 15.2284C42.2159 13.22 37.3851 10.655 37.7843 14.3161C37.8504 14.8768 37.8814 15.4412 37.8769 16.0057C37.973 15.9836 38.0706 15.9621 38.1686 15.9404C38.414 15.8862 38.6617 15.8314 38.8942 15.7665C38.6787 15.0476 38.6371 14.324 39.2287 14.0199C40.2353 13.5071 40.5864 14.9357 40.2387 15.5233C40.036 15.7513 39.7717 15.9154 39.4779 15.9958C39.5603 16.2174 39.6418 16.4284 39.7191 16.6283C39.8105 16.8646 39.8959 17.0855 39.9697 17.2905C40.2259 17.2013 40.4784 17.1286 40.6738 17.0723C40.7295 17.0562 40.7806 17.0415 40.8257 17.0282C40.9247 16.9972 41.0246 16.9683 41.1245 16.9394C41.2173 16.9125 41.3101 16.8857 41.4021 16.8572C41.398 16.8478 41.3934 16.8382 41.3888 16.8286C41.3818 16.814 41.3749 16.7995 41.3697 16.7863C41.1094 16.2105 40.8257 15.3604 41.7928 15.0563C42.5179 14.8276 43.0467 15.8136 42.705 16.5915C42.5427 16.8507 42.2925 17.0425 42.0004 17.1315L42.0252 17.1772C42.2382 17.5694 42.4729 18.0016 42.6567 18.4116C42.8067 18.347 42.9519 18.2915 43.072 18.2457C43.0996 18.2351 43.1258 18.2251 43.1505 18.2155C43.2334 18.1811 43.3453 18.1419 43.4737 18.0969C43.6421 18.0378 43.839 17.9688 44.0363 17.8876C43.9389 17.7159 43.8534 17.5376 43.7805 17.3541C43.5855 16.8314 43.6846 16.0594 44.5083 16.0455C45.3828 16.0343 45.6261 17.3105 45.2255 17.7139C45.0524 17.8802 44.8529 18.0166 44.6352 18.1173ZM35.0133 24.9328C33.9379 25.4821 34.5361 26.4687 35.1449 25.7624C35.2427 25.6192 35.3108 25.4578 35.3454 25.2878C35.3799 25.1178 35.38 24.9426 35.3458 24.7725C35.2328 24.8254 35.1231 24.8778 35.0133 24.9328ZM37.6006 22.6018C37.2523 21.7974 36.4491 22.1897 36.5793 22.7555C36.7021 23.0466 36.8778 23.3122 37.0976 23.5387C37.473 23.3068 37.7706 22.996 37.6006 22.6018ZM38.2649 25.6524C37.6125 26.0718 37.479 26.3601 37.7361 26.7145C37.9305 26.9802 38.5683 26.8517 38.4923 26.1428C38.4501 25.9657 38.3728 25.7989 38.2649 25.6524ZM40.759 23.4287C40.7134 22.7363 39.9638 22.4699 39.7503 23.1683C39.6617 23.4565 39.8461 23.8164 40.1145 24.1827C40.4609 23.9701 40.7755 23.7017 40.759 23.4287ZM40.9467 26.7179C40.2506 27.4819 41.1093 27.8396 41.3565 27.6283H41.3565C41.5602 27.4527 41.7254 27.1757 41.3102 26.4661C41.1774 26.5317 41.0549 26.6165 40.9467 26.7179ZM42.6834 24.3769C42.8092 24.6396 42.984 24.8758 43.1983 25.0727C43.5267 24.846 43.7825 24.5319 43.6405 24.1066C43.4151 23.4347 42.4659 23.6037 42.6834 24.3769ZM44.5065 28.1664C44.7669 28.1206 44.8522 27.9397 44.792 27.5601L44.7919 27.56C44.6986 27.257 44.5345 26.9806 44.3135 26.7537C44.2943 26.7823 44.2775 26.8124 44.2632 26.8438C43.739 27.9483 44.2599 28.2101 44.5065 28.1664ZM44.2395 26.1288C44.4784 25.8253 44.7393 25.5398 45.0201 25.2747L45.02 25.2747C45.2486 25.0567 45.523 24.8115 45.8247 24.5524C44.6023 23.8238 43.5619 23.1488 42.9538 22.7543C42.7506 22.6225 42.5957 22.522 42.4984 22.4613C38.7272 20.0938 34.5925 19.1721 35.1451 22.0173C35.1806 22.2008 35.2339 22.4252 35.2929 22.6739C35.402 23.1338 35.5307 23.6767 35.6032 24.1966C35.6824 24.1631 35.7607 24.1308 35.836 24.0997C35.9337 24.0595 36.0266 24.0211 36.1109 23.9845C36.1409 23.9722 36.1802 23.9571 36.2265 23.9392C36.3575 23.8885 36.5452 23.816 36.7415 23.7254C36.612 23.5717 36.5154 23.4564 36.4804 23.408C36.0587 22.7985 36.0772 22.0941 36.9154 21.9172C37.5711 21.7774 38.0761 22.5055 38.012 23.0158C37.9704 23.1942 37.889 23.3609 37.7739 23.5033C37.6589 23.6457 37.5131 23.7601 37.3477 23.838C37.3826 23.8784 37.4179 23.9193 37.4536 23.9605C37.7724 24.3286 38.1152 24.7244 38.3756 25.0837C38.5943 24.9623 38.8265 24.8449 39.0476 24.7331C39.1245 24.6943 39.2 24.6561 39.2732 24.6186C39.3063 24.6005 39.3611 24.5748 39.4304 24.5423C39.5163 24.502 39.6243 24.4514 39.7406 24.392C39.3136 23.8221 39.2072 23.5485 39.3816 23.1244C39.4529 22.9419 39.5839 22.789 39.7533 22.6909C39.9226 22.5928 40.1201 22.5553 40.3135 22.5845C40.5069 22.6136 40.6846 22.7078 40.8176 22.8516C40.9506 22.9953 41.0309 23.1801 41.0454 23.3755C41.1526 24.0441 40.9073 24.3019 40.4062 24.5563C40.4569 24.6174 40.5079 24.6784 40.5585 24.7389C40.6962 24.9035 40.8309 25.0645 40.947 25.2143C40.9892 25.2706 41.0355 25.33 41.0841 25.3926C41.2113 25.556 41.3547 25.7404 41.4857 25.9445C41.6853 25.8409 41.8867 25.7429 42.0517 25.6626C42.183 25.5988 42.2914 25.5461 42.3576 25.5105C42.399 25.4882 42.4611 25.4603 42.5362 25.4266C42.6363 25.3817 42.7594 25.3264 42.8871 25.2602C42.6343 25.0367 42.4318 24.7621 42.2928 24.4544C42.0549 23.2783 43.3557 23.224 43.7742 23.8382C44.3175 24.6406 43.8687 25.1203 43.5012 25.3827C43.7425 25.622 43.9989 25.8777 44.2395 26.1288ZM35.211 33.104C34.6518 33.5148 34.4508 33.8143 34.4938 34.0582C34.5883 34.6267 35.3302 34.5386 35.324 33.6705C35.3135 33.4773 35.2755 33.2865 35.211 33.104ZM36.502 30.8446C36.6501 31.0766 36.8337 31.2839 37.046 31.4588C37.1772 31.3521 37.2965 31.2315 37.4016 31.099C37.6535 30.767 37.362 30.011 36.9819 30.0289C36.4438 30.0501 36.424 30.6345 36.502 30.8446ZM37.9475 34.2172C37.9594 34.9268 38.8683 34.7791 38.8881 34.1523L38.8883 34.1524C38.8701 33.8838 38.7484 33.6328 38.549 33.4525C38.2033 33.7083 37.9422 33.9767 37.9475 34.2172ZM40.4057 31.8385C40.4126 31.8337 40.4196 31.829 40.4257 31.8245H40.4258C40.5886 31.7174 40.707 31.5547 40.7589 31.3666C40.8108 31.1785 40.7927 30.9778 40.7079 30.8021C40.5083 30.378 39.8453 30.221 39.7733 30.985C39.7534 31.1931 40.0192 31.5098 40.3867 31.8524C40.3925 31.8478 40.3991 31.8432 40.4057 31.8385ZM42.158 34.9099C42.2409 34.8351 42.2931 34.732 42.3043 34.6207H42.3045C42.3639 34.3841 42.1604 34.0767 41.9051 33.7944C41.7653 33.8844 41.648 34.0053 41.5623 34.1479C41.4766 34.2905 41.4247 34.4509 41.4106 34.6168C41.4209 34.7281 41.4722 34.8317 41.5545 34.9072C41.6367 34.9827 41.7441 35.0248 41.8557 35.0253C41.9673 35.0258 42.075 34.9847 42.158 34.9099ZM43.0982 30.9539C42.7228 31.2558 42.9343 31.7245 43.5689 32.2539H43.569C44.1851 31.7286 43.9888 31.2785 43.7705 31.0188C43.6876 30.9245 43.572 30.8652 43.4472 30.8532C43.3223 30.8411 43.1976 30.8771 43.0982 30.9539ZM45.8562 34.8328C45.9042 34.7094 45.9039 34.5723 45.8553 34.4491H45.8555C45.798 34.2285 45.4912 33.9924 45.0892 33.7328C44.7501 35.0552 45.3225 35.227 45.5962 35.1144C45.7152 35.0568 45.8081 34.9562 45.8562 34.8328ZM44.8519 33.112C44.9101 32.937 44.9722 32.7562 45.0416 32.5647H45.0417C45.2565 31.9729 45.5286 31.4037 45.8542 30.8651C44.5189 30.4569 43.1983 30.0142 41.9245 29.571C38.6194 28.4279 36.0751 28.1006 34.9712 28.8746C34.273 29.3622 34.4389 30.5827 35.3181 32.4447C35.323 32.4554 35.3274 32.4661 35.3317 32.4766C35.3377 32.4914 35.3435 32.5057 35.3505 32.5189C35.5072 32.4244 35.6711 32.3308 35.8362 32.2365C36.1285 32.0696 36.4247 31.9004 36.6917 31.7204C36.3162 31.3646 36.0565 31.0386 36.0783 30.7027C36.0761 30.5825 36.0989 30.4632 36.1452 30.3523C36.1915 30.2414 36.2602 30.1413 36.3471 30.0584C36.434 29.9755 36.5371 29.9116 36.6498 29.8707C36.7626 29.8298 36.8826 29.8128 37.0023 29.8208C37.2059 29.8677 37.3915 29.9727 37.5367 30.1231C37.682 30.2735 37.7807 30.4629 37.8208 30.6684C37.8609 30.8738 37.8408 31.0865 37.7628 31.2808C37.6849 31.475 37.5524 31.6424 37.3816 31.7628C37.505 31.8713 37.6267 31.9761 37.7357 32.07C37.8888 32.2018 38.0169 32.3121 38.0895 32.3809C38.2971 32.5771 38.4703 32.7506 38.617 32.9104C38.9101 32.7226 39.2337 32.5402 39.5333 32.3714C39.7019 32.2764 39.8629 32.1856 40.0065 32.1007C39.8364 31.9533 39.684 31.7865 39.5524 31.6037C39.0771 30.8444 39.5696 30.2268 40.2603 30.2341C40.508 30.2775 40.7332 30.405 40.8982 30.5951C41.0632 30.7853 41.158 31.0265 41.1666 31.2784C41.1772 31.4505 41.14 31.6221 41.059 31.7742C40.978 31.9263 40.8564 32.0529 40.7078 32.1397C40.8696 32.2792 41.0391 32.42 41.2046 32.5575C41.4246 32.7403 41.6374 32.9171 41.8151 33.0766C41.8356 33.0961 41.8562 33.1154 41.8769 33.1346C41.9181 33.1732 41.9593 33.2116 41.9989 33.2509C42.3252 33.0177 42.6668 32.807 43.0216 32.6202C43.0896 32.5824 43.1524 32.5446 43.2132 32.5068C43.0012 32.3414 42.8157 32.1443 42.6633 31.9224C42.5751 31.7794 42.531 31.6134 42.5364 31.4453C42.5419 31.2773 42.5968 31.1146 42.6941 30.9776C42.7914 30.8406 42.9269 30.7355 43.0836 30.6754C43.2402 30.6153 43.4111 30.6028 43.5748 30.6396C44.3046 30.7827 44.5882 31.9065 43.9615 32.4929C43.9563 32.4993 43.9491 32.5045 43.942 32.5096C43.9356 32.5143 43.9292 32.5189 43.9245 32.5242C44.0521 32.6123 44.1876 32.7025 44.3357 32.7939C44.4462 32.8617 44.547 32.924 44.6425 32.9829C44.7148 33.0275 44.784 33.0703 44.8519 33.112ZM48.5655 31.2535C51.0449 31.8488 55.9084 33.0166 57.6163 30.49C57.6682 30.0795 57.8073 29.6849 58.024 29.3328C58.2408 28.9807 58.5303 28.6792 58.8731 28.4486C59.0945 28.2823 59.3139 28.1359 59.5255 27.998C58.6054 27.4189 57.7143 26.802 57.6337 25.6186C57.5199 23.972 58.5723 23.2697 59.4564 22.8216C58.5647 22.3698 57.7159 21.8814 57.6465 20.6304C57.5515 18.9031 58.6799 17.6743 59.1712 17.1392C59.2372 17.0674 59.2917 17.008 59.3302 16.9617C59.3751 16.9079 59.42 16.857 59.4648 16.8063C59.4878 16.7802 59.5108 16.7542 59.5338 16.7278C57.7277 14.8274 55.6031 13.7699 52.6127 13.4877C52.341 13.4633 52.0832 13.4499 51.838 13.4459C51.9079 13.605 51.9778 13.7642 52.0474 13.923C52.4387 14.8145 52.824 15.6925 53.1865 16.4574C54.3617 16.6178 55.3394 16.9683 55.8068 17.452C56.7005 18.3683 56.2893 19.4823 55.2422 19.422C54.3941 19.3742 53.7913 18.8263 52.8275 16.7391C52.0131 16.6363 51.1888 16.6415 50.3758 16.7543C49.4438 16.8863 48.5381 17.1633 47.6913 17.5753C48.4681 18.3061 49.063 18.8918 49.3062 19.1344C50.1596 19.9885 50.8927 20.6842 51.5365 21.2394C52.1109 21.0792 52.7023 20.9883 53.2982 20.9684C54.3089 20.9466 55.9463 21.6921 55.3513 22.9722C54.9162 23.9098 53.265 23.0815 52.3852 22.4295C52.0776 22.1996 51.7538 21.9378 51.4172 21.6536C50.9651 21.8073 50.4587 22.0101 49.8744 22.2764C48.6829 22.8687 47.5638 23.5973 46.5395 24.4478C47.3506 24.9182 48.2 25.3887 49.1142 25.8465C49.6014 26.0904 50.0496 26.2945 50.4693 26.4668C52.0796 25.5616 53.5821 25.1998 54.3185 25.5325C56.0318 26.3104 55.4429 27.6747 53.5471 27.7423C52.7373 27.7721 51.6419 27.4507 50.4554 26.9577C49.3201 27.5676 48.302 28.3748 47.4485 29.3418C47.1061 29.7466 46.7975 30.179 46.5257 30.6345C47.3665 30.9121 48.0606 31.1308 48.4962 31.2368L48.5655 31.2535ZM53.4295 25.8803C52.5897 26.0267 51.7755 26.2941 51.0121 26.6741C53.7356 27.6747 54.9109 27.1446 54.9941 26.5999C55.0801 26.0221 54.1031 25.7942 53.4295 25.8803ZM54.4799 21.5615C53.8228 21.2594 53.0712 21.1738 51.8615 21.5138C53.2365 22.6475 54.1645 23.0636 54.8871 22.8357C55.5593 22.6217 54.9439 21.7722 54.4799 21.5615ZM55.8847 18.1902C55.6565 17.6124 54.6795 17.0803 53.366 16.8272C53.6153 17.3621 53.9051 17.8771 54.2328 18.3677C54.8806 19.2682 56.3276 19.3238 55.8847 18.1902ZM59.4868 17.4941C59.3614 17.6429 59.2358 17.7919 59.1124 17.9516C57.1868 20.4914 58.1155 21.7218 59.62 22.5117C59.6159 20.9584 59.6137 19.5636 59.6121 18.5321C59.6114 18.0513 59.6107 17.6495 59.6101 17.3474C59.5691 17.3965 59.5279 17.4453 59.4868 17.4941ZM58.1109 25.3039C58.0811 26.5542 58.7402 27.0736 59.6279 27.6448C59.6271 27.1517 59.6261 26.6531 59.6252 26.1546C59.6233 25.1345 59.6213 24.115 59.62 23.1438C58.8274 23.5745 58.1393 24.1105 58.1109 25.3039ZM59.6279 28.3425C58.8076 28.872 58.0858 29.4504 58.0488 30.4742C57.9972 31.8902 58.8697 32.9603 59.6378 33.6651C59.6372 32.2922 59.6332 30.3866 59.6279 28.3425ZM55.0285 9.56704C55.5067 9.66889 55.9623 9.85727 56.373 10.123C58.0831 11.1997 59.148 13.4738 59.6378 15.1998C59.5369 12.0767 58.8341 9.00268 57.5682 6.14718C56.0201 2.53449 53.1347 0.144519 52.005 0.736213C51.4767 1.01302 51.2329 1.86376 50.9796 2.74812C50.8928 3.051 50.8049 3.35781 50.7041 3.64687C50.9407 3.67449 51.1827 3.70804 51.421 3.7411C51.5263 3.7557 51.6309 3.7702 51.734 3.78406C51.9217 2.62258 52.2072 2.24235 53.0051 2.35829C53.8915 2.48483 53.9127 4.44686 52.1312 4.25665C52.0937 4.79323 52.0262 5.32728 51.929 5.85629C52.1573 5.88025 52.3898 5.91103 52.6173 5.94114C52.7942 5.96456 52.9681 5.98758 53.1347 6.00669C53.1433 5.87486 53.1506 5.7609 53.1552 5.67942C53.2107 5.00288 53.6073 4.2515 54.5037 4.63447C55.1806 4.92137 55.1779 6.62954 53.5062 6.51558C53.5026 6.62258 53.4959 6.73505 53.4888 6.85421C53.4867 6.89003 53.4845 6.92646 53.4824 6.96352C53.4659 7.30543 53.4394 7.59886 53.4044 7.85271C53.602 7.86662 53.8149 7.88471 54.0363 7.91183C54.1338 7.92406 54.24 7.93935 54.3511 7.95534C54.4931 7.97578 54.643 7.99737 54.7932 8.01521C54.9003 6.85513 55.1277 6.553 55.9169 6.659C56.8715 6.79086 56.6223 8.21214 55.7206 8.42486C55.5444 8.45126 55.3656 8.45477 55.1885 8.4353C55.15 8.79908 55.0986 9.19464 55.0285 9.56704ZM55.2357 7.96034C55.233 7.98893 55.2303 8.01806 55.2275 8.04766V8.04769C55.7682 8.06098 56.2336 7.9377 56.2673 7.38774C56.3135 6.62509 55.4172 6.7026 55.3075 7.31287C55.2841 7.44879 55.2623 7.67914 55.2357 7.96034ZM54.2875 4.76446C53.7778 4.79892 53.6272 5.06926 53.5419 6.04529V6.04532C53.8534 6.11002 54.1778 6.05641 54.4521 5.89489C55.0107 5.33498 54.5341 4.74927 54.2875 4.76446ZM52.1722 3.73704C52.1694 3.76973 52.1666 3.80329 52.1636 3.8375V3.83754C52.1914 3.84019 52.2193 3.84299 52.247 3.84575C52.3025 3.8513 52.3569 3.85673 52.4062 3.8607C53.1552 3.917 53.4375 3.36043 53.3099 2.89132C53.1552 2.33739 52.2985 2.54291 52.2007 3.43662C52.1904 3.5205 52.1817 3.62355 52.1722 3.73704ZM57.1433 37.2269C56.1893 37.3234 56.4312 38.0774 57.1537 38.1623V38.1623C57.6918 38.1981 58.2269 38.0574 58.6782 37.7616C58.4824 37.5577 58.2413 37.403 57.9746 37.3101C57.7079 37.2172 57.4231 37.1887 57.1433 37.2269ZM62.545 38.1625C63.2695 38.0776 63.5121 37.3236 62.5569 37.2269V37.2267C62.2769 37.1887 61.9918 37.2173 61.7248 37.3102C61.4578 37.4032 61.2164 37.5578 61.02 37.7616C61.4716 38.0573 62.0068 38.198 62.545 38.1625ZM59.8507 39.7845C59.9067 39.0949 60.1081 38.425 60.4417 37.8192V37.8191C60.1883 37.5534 59.9878 37.2418 59.8507 36.9008C59.7129 37.241 59.5122 37.5519 59.2591 37.8173C59.5922 38.424 59.7938 39.0943 59.8507 39.7845ZM67.6951 0.736561C66.566 0.144867 63.6807 2.53484 62.1332 6.14739C60.8673 9.00286 60.164 12.0768 60.0621 15.1998C60.5541 13.4738 61.6156 11.1997 63.327 10.123C63.7377 9.85717 64.1933 9.66889 64.6715 9.56739C64.6014 9.19499 64.5486 8.79942 64.5122 8.43564C64.3347 8.45506 64.1554 8.45155 63.9788 8.42521C63.0778 8.21249 62.8286 6.79121 63.7845 6.65934C64.5717 6.55321 64.7971 6.85533 64.9069 8.01556C65.0606 7.99747 65.2126 7.97552 65.3559 7.95483C65.4646 7.93914 65.5682 7.92418 65.6637 7.91218C65.8845 7.88491 66.0981 7.86697 66.2977 7.85306C66.2607 7.59931 66.2349 7.30577 66.2184 6.96387C66.2148 6.89701 66.2107 6.83222 66.2068 6.7693C66.2013 6.68133 66.1961 6.59703 66.1926 6.51593C64.5228 6.62989 64.5189 4.92171 65.1964 4.63482C66.0921 4.25185 66.4881 5.00323 66.5436 5.67977C66.5495 5.76125 66.5574 5.87521 66.5654 6.00704C66.7322 5.98793 66.9061 5.96488 67.083 5.94145C67.3104 5.9113 67.5428 5.8805 67.7711 5.85664C67.6728 5.32783 67.6055 4.7937 67.5695 4.25699C65.7887 4.44721 65.8092 2.48518 66.6936 2.35863C67.4895 2.24252 67.777 2.62292 67.9648 3.7844C68.0631 3.77119 68.163 3.75734 68.2639 3.74338C68.5071 3.70972 68.7555 3.67533 68.998 3.64722C68.8946 3.354 68.8051 3.0425 68.7168 2.73536C68.4639 1.85579 68.2213 1.01209 67.6951 0.736561ZM67.447 3.84637C67.4762 3.84339 67.5059 3.84037 67.5358 3.83754C67.5283 3.75857 67.522 3.68313 67.5162 3.61375C67.5108 3.54868 67.5058 3.48895 67.5007 3.43665C67.4029 2.54284 66.5436 2.33742 66.3915 2.89135C66.2626 3.36046 66.5436 3.91703 67.2939 3.86073C67.3428 3.85699 67.3942 3.85175 67.447 3.84637ZM65.2486 5.89492C65.4006 6.0488 65.7371 6.07182 66.1569 6.04532C66.0723 5.0693 65.9209 4.79892 65.4139 4.7645C65.1673 4.7493 64.6881 5.33505 65.2486 5.89492ZM63.4335 7.38777C63.4665 7.9377 63.9318 8.06098 64.4726 8.04769C64.469 8.00988 64.4655 7.97285 64.4621 7.93669C64.4367 7.66623 64.4158 7.44502 64.3919 7.3129C64.2822 6.70271 63.3865 6.62512 63.4335 7.38777ZM60.1645 17.435C60.1399 17.4059 60.1153 17.3767 60.0906 17.3474C60.0894 17.78 60.0884 18.4172 60.0871 19.198C60.0855 20.132 60.0836 21.2713 60.0807 22.5117C61.5866 21.7218 62.5153 20.4914 60.5877 17.9516C60.4479 17.7709 60.3068 17.6036 60.1645 17.435ZM60.0728 27.6448C60.9606 27.0736 61.6202 26.5541 61.5905 25.3038V25.3039C61.5608 24.1138 60.8733 23.5745 60.0801 23.1437C60.0788 24.5896 60.0763 26.1425 60.0728 27.6448ZM60.0653 31.7519C60.0641 32.4601 60.0629 33.1068 60.0621 33.6652C60.8284 32.9603 61.7022 31.8902 61.6527 30.4743C61.6136 29.4504 60.8929 28.872 60.0707 28.3426C60.0691 29.5552 60.0671 30.719 60.0653 31.7519ZM71.1327 31.2545L71.2063 31.2368H71.2064C71.6394 31.1308 72.3342 30.9121 73.1763 30.6348C72.9037 30.1797 72.5949 29.7474 72.2529 29.342C71.3991 28.375 70.3807 27.5678 69.2451 26.958C68.0579 27.451 66.9626 27.7723 66.1522 27.7425C64.257 27.6749 63.6687 26.3106 65.3801 25.5327C66.1165 25.2001 67.619 25.5619 69.2326 26.467C69.6497 26.2948 70.0978 26.0907 70.5824 25.8468C71.5 25.3889 72.3493 24.9185 73.1617 24.4481C72.1367 23.5983 71.0175 22.8697 69.8262 22.2767C69.3222 22.0433 68.8068 21.8355 68.282 21.6539C67.9475 21.9381 67.6223 22.1999 67.3156 22.4298C66.4351 23.0818 64.7852 23.91 64.3483 22.9724C63.7533 21.6923 65.3925 20.9469 66.402 20.9687C66.9979 20.9885 67.5893 21.0795 68.1637 21.2397C68.8075 20.6845 69.5425 19.9888 70.3946 19.1346C70.6359 18.8921 71.2308 18.3064 72.0088 17.5756C71.162 17.1638 70.2563 16.8868 69.3244 16.7546C68.5111 16.6417 67.6866 16.6366 66.872 16.7394C65.9102 18.8265 65.3047 19.3745 64.4566 19.4222C63.4102 19.4825 62.9997 18.3687 63.8921 17.4523C64.3621 16.9686 65.3398 16.6181 66.5137 16.4577C66.8874 15.6692 67.2853 14.7604 67.6881 13.8406C67.7456 13.7092 67.8032 13.5777 67.8609 13.4462C67.6143 13.4501 67.3612 13.4634 67.0862 13.4879C64.097 13.7702 61.9738 14.8277 60.1666 16.7281C60.1773 16.7403 60.188 16.7524 60.1987 16.7646C60.2558 16.8293 60.3122 16.8933 60.3695 16.9619C60.408 17.0083 60.4626 17.0678 60.5287 17.1397C61.0204 17.6749 62.1494 18.9036 62.0538 20.6307C61.9837 21.8817 61.1363 22.3699 60.2439 22.8219C61.1275 23.2699 62.1822 23.9722 62.0677 25.6188C61.9837 26.8022 61.0947 27.4191 60.1738 27.9982C60.388 28.136 60.6049 28.2824 60.8269 28.4487C61.1701 28.6789 61.46 28.9802 61.6769 29.3324C61.8938 29.6846 62.0327 30.0794 62.0842 30.49C63.7905 33.0152 68.6488 31.8501 71.1327 31.2545ZM65.4681 18.3677C65.7962 17.8777 66.0855 17.3626 66.3334 16.8272C65.0192 17.0803 64.0448 17.6124 63.8162 18.1902C63.3727 19.324 64.8209 19.2682 65.4681 18.3677ZM64.813 22.8357C65.5355 23.0636 66.4616 22.6474 67.8385 21.5138C66.6288 21.1738 65.8772 21.2594 65.2189 21.5615C64.7555 21.7722 64.1407 22.6217 64.813 22.8357ZM64.706 26.5999C64.79 27.1446 65.9646 27.6747 68.69 26.6741C67.9259 26.2941 67.1111 26.0267 66.2706 25.8803C65.5971 25.7942 64.6208 26.0221 64.706 26.5999ZM73.8435 34.8332C73.8918 34.9566 73.9851 35.0571 74.1045 35.1144H74.1044C74.3795 35.2269 74.9505 35.0554 74.6107 33.7327C74.2083 33.9925 73.903 34.2285 73.844 34.4491C73.7953 34.5724 73.7951 34.7097 73.8435 34.8332ZM75.9283 31.0188C75.7101 31.2785 75.5145 31.7284 76.1285 32.2538C76.765 31.7245 76.978 31.256 76.6018 30.9539C76.5023 30.8771 76.3773 30.8411 76.2523 30.8532C76.1272 30.8653 76.0114 30.9245 75.9283 31.0188ZM78.1448 34.9073C78.2271 34.8317 78.2785 34.7282 78.2888 34.6168H78.2887C78.2746 34.451 78.2228 34.2906 78.1372 34.148C78.0516 34.0055 77.9345 33.8845 77.795 33.7944C77.5398 34.0767 77.3349 34.3843 77.3944 34.6207C77.4057 34.732 77.458 34.8352 77.541 34.91C77.6239 34.9848 77.7318 35.026 77.8434 35.0255C77.955 35.025 78.0625 34.9829 78.1448 34.9073ZM79.2821 31.8292C79.2924 31.8366 79.3035 31.8447 79.3133 31.8523C79.6795 31.5098 79.9485 31.193 79.9281 30.985C79.8547 30.2211 79.1917 30.3779 78.9928 30.8022C78.9074 30.9778 78.889 31.1787 78.9411 31.3671C78.9932 31.5554 79.1122 31.7181 79.2757 31.8245L79.2821 31.8292ZM80.8126 34.1521C80.8324 34.7789 81.74 34.9267 81.7539 34.2171L81.7537 34.2172C81.7564 33.9767 81.4959 33.7083 81.1497 33.4524C80.95 33.6322 80.8289 33.8836 80.8126 34.1521ZM82.2992 31.0988C82.4045 31.231 82.5235 31.3516 82.6542 31.4586L82.6541 31.4588C82.8667 31.2845 83.05 31.0771 83.1969 30.8444C83.2762 30.6344 83.2583 30.0499 82.7196 30.0287C82.3369 30.0109 82.0441 30.7669 82.2992 31.0988ZM84.3774 33.6704C84.3715 34.5384 85.1106 34.6266 85.2084 34.058L85.2083 34.0582C85.2493 33.8143 85.0463 33.5148 84.4879 33.1039C84.4241 33.2864 84.3869 33.4772 84.3774 33.6704ZM84.3594 32.4976C84.3665 32.4807 84.3742 32.4626 84.3834 32.4445L84.3833 32.4447C85.2605 30.5828 85.4271 29.3623 84.7295 28.8746C83.6275 28.1006 81.078 28.4279 77.7748 29.571C76.5017 30.0142 75.181 30.4569 73.8464 30.865C74.1715 31.4037 74.4434 31.973 74.6582 32.5646C74.7276 32.7561 74.7897 32.937 74.8479 33.1119C74.9545 33.0458 75.0665 32.9771 75.1887 32.9022C75.2453 32.8676 75.304 32.8316 75.3655 32.7938C75.5109 32.7021 75.6477 32.6122 75.776 32.5241C75.7627 32.5151 75.7505 32.5046 75.7396 32.4928C75.111 31.9064 75.3952 30.7827 76.125 30.6396C76.2887 30.6029 76.4595 30.6155 76.6161 30.6756C76.7726 30.7358 76.9081 30.8409 77.0054 30.9778C77.1027 31.1146 77.1577 31.2773 77.1633 31.4452C77.169 31.6132 77.1251 31.7792 77.0372 31.9223C76.8845 32.1442 76.6988 32.3413 76.4866 32.5068L76.4871 32.5071C76.5484 32.5447 76.6097 32.5824 76.6796 32.6201C77.0338 32.8071 77.375 33.0178 77.7009 33.2508C77.7599 33.1919 77.8226 33.1349 77.8848 33.0766C78.0671 32.9131 78.2854 32.7315 78.5109 32.544C78.6711 32.4108 78.8349 32.2746 78.992 32.1397C78.8431 32.0532 78.7213 31.9267 78.6404 31.7745C78.5595 31.6223 78.5226 31.4504 78.534 31.2783C78.5425 31.0262 78.6374 30.7848 78.8027 30.5946C78.968 30.4044 79.1936 30.2771 79.4416 30.234C80.1304 30.2268 80.6229 30.8443 80.1476 31.6037C80.0166 31.7869 79.8641 31.9538 79.6934 32.1006C79.8349 32.1842 79.9931 32.2733 80.1589 32.3666C80.4609 32.5367 80.7877 32.7207 81.0823 32.9103C81.2297 32.7506 81.4029 32.577 81.6111 32.3809C81.6878 32.3076 81.8268 32.1876 81.9923 32.0447C82.0934 31.9574 82.2043 31.8616 82.3171 31.7627C82.1464 31.642 82.0143 31.4744 81.9366 31.2801C81.8589 31.0858 81.8391 30.873 81.8794 30.6676C81.9197 30.4622 82.0185 30.273 82.1639 30.1226C82.3092 29.9723 82.4949 29.8674 82.6984 29.8206C82.818 29.8128 82.938 29.8299 83.0506 29.8709C83.1633 29.9119 83.2662 29.9758 83.353 30.0587C83.4398 30.1416 83.5085 30.2416 83.5548 30.3524C83.601 30.4632 83.6239 30.5824 83.6219 30.7025C83.6451 31.0384 83.3838 31.3644 83.0091 31.7203C83.2778 31.9011 83.5751 32.071 83.8686 32.2387C84.0322 32.3322 84.1947 32.425 84.3503 32.5187C84.3533 32.5119 84.3563 32.5049 84.3594 32.4976ZM14.0009 54.6336C14.5133 55.4793 14.7697 56.4552 14.7392 57.4435C14.739 59.868 13.6518 61.4842 11.4775 62.292L15.3562 67.7135H11.8301L8.25977 62.7108H3.27912V67.7135H0.480225V52.2865H8.63451C9.79007 52.2431 10.9411 52.4538 12.0064 52.9036C12.8271 53.2712 13.521 53.8731 14.0009 54.6336ZM8.54632 60.0442C9.18012 60.0734 9.81415 59.9913 10.4196 59.8016C11.4481 59.464 11.9624 58.6853 11.9624 57.4655C11.9623 56.3932 11.4995 55.666 10.5739 55.2838C9.91515 55.0588 9.21952 54.9616 8.52432 54.9973H3.27912V60.0442H8.54632ZM18.0794 67.7135L25.1317 52.2865H28.8121L35.8425 67.7135H32.7571L31.3025 64.4738H22.5312L21.0986 67.7135H18.0794ZM26.9169 54.5565L23.6992 61.8072H30.1345L26.9169 54.5565ZM51.886 52.2865H39.6987L39.6989 67.7135H42.5198V61.4988H50.8504V58.7659H42.5198V55.0413H51.886V52.2865ZM68.4809 52.2865H56.2935V67.7135H59.1145V61.4988H67.4451V58.7659H59.1145V55.0413H68.4809V52.2865ZM84.8995 64.9367H75.7975V52.2865H72.8885V67.7136H84.8995V64.9367ZM101.508 65.0028H91.3266V61.2342H99.9877V58.5454H91.3266V54.9973H101.2V52.2865H88.5497V67.7136H101.508V65.0028ZM118.78 65.0736C119.077 64.4688 119.227 63.803 119.22 63.1294C119.22 61.7483 118.746 60.6831 117.799 59.9339C116.851 59.1847 115.547 58.7365 113.887 58.5895L112.168 58.4352C111.248 58.3951 110.343 58.1975 109.49 57.8513C109.218 57.7404 108.987 57.549 108.827 57.3027C108.668 57.0564 108.587 56.7671 108.597 56.4738C108.597 55.9891 108.876 55.563 109.435 55.1956C109.993 54.8283 110.904 54.6447 112.168 54.6447C114.224 54.6447 115.774 55.2177 116.818 56.3636L118.89 54.5565C117.376 52.8522 115.172 52 112.278 52C110.192 52 108.586 52.4224 107.463 53.2672C106.929 53.643 106.497 54.144 106.203 54.7262C105.909 55.3084 105.762 55.954 105.777 56.6061C105.776 58.0166 106.265 59.0561 107.242 59.7245C108.219 60.393 109.596 60.8154 111.374 60.9917L113.204 61.1681C115.334 61.374 116.399 62.0572 116.399 63.2176C116.392 63.5329 116.302 63.8408 116.138 64.1098C115.973 64.3789 115.74 64.5995 115.463 64.7493C114.838 65.1533 113.901 65.3553 112.653 65.3553C111.638 65.3813 110.626 65.2245 109.666 64.8925C108.808 64.5544 108.041 64.0183 107.429 63.3279L105.27 65.135C106.856 67.045 109.266 68 112.498 68C114.702 68 116.373 67.5372 117.512 66.6116C118.049 66.2051 118.483 65.6783 118.78 65.0736Z" fill="#0C1F1E"/>
<path fill-rule="evenodd" clip-rule="evenodd" d="M49.7806 80.5229L50.5126 82H51.5017L48.4255 76H47.5148L44.4037 82H45.3623L46.0943 80.5229H49.7806ZM46.4516 79.8344L47.9462 76.8584L49.4189 79.8344H46.4516ZM41.981 76.8497L41.9374 82H42.7478V76H41.5932L39.1444 81.0806L36.6956 76H35.5234V82H36.3208L36.2772 76.8497L38.7261 82H39.5234L41.981 76.8497ZM58.713 82L56.0028 78.7712L54.1422 80.1394V82H53.3187V76H54.1596V79.1939L58.4864 76H59.737L56.7043 78.2614L59.8546 82H58.713ZM64.1814 78.7712L66.8916 82H68.0333L64.8829 78.2614L67.9156 76H66.6651L62.3383 79.1939V76H61.4973V82H62.3208V80.1394L64.1814 78.7712ZM75.0573 82L74.3252 80.5229H70.639L69.907 82H68.9483L72.0595 76H72.9701L76.0464 82H75.0573ZM72.4908 76.8584L70.9963 79.8344H73.9636L72.4908 76.8584ZM83.3186 79.1634V82H84.177V76H83.3099V78.4488H78.713V76H77.8546V82H78.7217V79.1634H83.3186Z" fill="#0C1F1E"/>
</svg>
