<svg xmlns="http://www.w3.org/2000/svg" version="1.1" xmlns:xlink="http://www.w3.org/1999/xlink" width="512" height="512" x="0" y="0" viewBox="0 0 64 64" style="enable-background:new 0 0 512 512" xml:space="preserve"><g><path d="M27 43a4.713 4.713 0 0 1 1 .11V26a3.999 3.999 0 0 0-4-4H10a3.999 3.999 0 0 0-4 4v17.11A4.713 4.713 0 0 1 7 43ZM58 52a2.006 2.006 0 0 0 2-2v-2a3.021 3.021 0 0 0-3-3H37a3.021 3.021 0 0 0-3 3v2a2.006 2.006 0 0 0 2 2h7v6H21v-6h7a2.006 2.006 0 0 0 2-2v-2a3.021 3.021 0 0 0-3-3H7a3.021 3.021 0 0 0-3 3v2a2.006 2.006 0 0 0 2 2h7v6H5a1 1 0 0 0 0 2h54a1 1 0 0 0 0-2h-8v-6Zm-39 6h-4v-6h4Zm30 0h-4v-6h4ZM36 26v17.11a4.713 4.713 0 0 1 1-.11h20a4.713 4.713 0 0 1 1 .11V26a3.999 3.999 0 0 0-4-4H40a3.999 3.999 0 0 0-4 4ZM32 21a8.5 8.5 0 1 0-8.5-8.5A8.506 8.506 0 0 0 32 21ZM31 8.26a1 1 0 0 1 2 0v3.24h1.95a1 1 0 0 1 0 2H32a1.003 1.003 0 0 1-1-1Z" fill="#ffffff" opacity="1" data-original="#000000"></path></g></svg>