<svg xmlns="http://www.w3.org/2000/svg" version="1.1" xmlns:xlink="http://www.w3.org/1999/xlink" width="512" height="512" x="0" y="0" viewBox="0 0 512 512" style="enable-background:new 0 0 512 512" xml:space="preserve"><g><path d="M43.996 141.41c0-31.543 25.664-57.207 57.211-57.207 31.543 0 57.211 25.664 57.211 57.207v46.106c15.89-4.86 27.488-19.66 27.488-37.125V38.813C185.906 17.41 168.492 0 147.09 0H55.324C33.922 0 16.508 17.41 16.508 38.813V150.39c0 17.464 11.594 32.265 27.488 37.125zM337.297 0h-91.77c-21.402 0-38.812 17.41-38.812 38.813V150.39c0 21.402 17.41 38.812 38.812 38.812h91.77c21.402 0 38.816-17.41 38.816-38.812V38.813C376.113 17.41 358.7 0 337.297 0zm0 0" fill="#ffffff" opacity="1" data-original="#000000"></path><path d="M266.21 241.145c-15.19 0-27.5 12.312-27.5 27.5v-14.008c0-15.188-12.312-27.5-27.503-27.5-15.187 0-27.5 12.308-27.5 27.5v-11.782c0-14.445-11.137-26.277-25.289-27.406a29.527 29.527 0 0 0-2.211-.094c-11.086 0-20.633 6.567-24.984 16.016a27.388 27.388 0 0 0-2.516 11.484V141.41c0-15.187-12.312-27.5-27.5-27.5s-27.5 12.313-27.5 27.5v236.094l-1.191-.152-16.942-72.516c-3.457-14.79-18.25-23.98-33.039-20.524-15.531 0-25.348 12.375-21.816 27.5l19.644 84.075C30.637 461.668 83.813 512 83.813 512H250.89a260.33 260.33 0 0 0 42.804-142.984l.016-100.371c0-15.188-12.313-27.5-27.5-27.5zm0 0" fill="#ffffff" opacity="1" data-original="#000000"></path></g></svg>