<svg xmlns="http://www.w3.org/2000/svg" version="1.1" xmlns:xlink="http://www.w3.org/1999/xlink" width="512" height="512" x="0" y="0" viewBox="0 0 512 512" style="enable-background:new 0 0 512 512" xml:space="preserve"><g><path d="m258.872 427.483 70.052-41.117c4.059-2.384 8.602-3.644 13.137-3.644 7.578 0 14.141 3.474 17.56 9.295.2.34.362.717.542 1.08l-86.819 50.961-14.239 2.068c1.947-5.808 1.894-12.322-.233-18.643zm121.209-32.417c-4.386 0-8.798 1.183-12.757 3.42-.078.044-.167.065-.248.104-.054.036-.1.081-.158.115l-90.093 52.883c-.459.27-.968.448-1.495.525l-21.529 3.127c-.194.217-.383.44-.581.648h59.986l85.371-34.747c2.253-5.828 1.927-11.875-.962-16.799-3.409-5.807-9.965-9.276-17.534-9.276zM59.699 353.75l-.004 104.559 114.231 46.654 148.885.005L427.72 462.26c12.055-4.909 18.412-17.384 14.173-27.808-2.961-7.273-10.66-11.975-19.613-11.975-3.385 0-6.733.663-9.948 1.974l-8.958 3.646c-.026.012-.048.028-.073.039l-87.73 35.708c-.494.2-1.023.305-1.557.305h-80.487c-.039 0-.077-.012-.115-.012l-.315.002c-7.645 0-15.197-2.773-21.354-7.848l-61.177-39.179a4.129 4.129 0 0 1 4.453-6.954l61.392 39.316c.147.094.288.197.424.311 4.806 4.022 10.723 6.173 16.629 6.093h.065c.012 0 .023.003.035.003 5.883-.12 11.023-2.451 14.476-6.579 4.805-5.736 5.562-14.068 1.987-21.763-.013-.024-.029-.044-.043-.068-1.6-3.416-3.892-6.403-6.815-8.881l-91.686-64.84zM41.994 490.377v-4.129l-32.552-.002C4.236 486.245 0 482.009 0 476.804V336.011c0-2.507.986-4.873 2.776-6.663a9.369 9.369 0 0 1 6.665-2.777l32.558.003c5.207.001 9.442 4.238 9.442 9.444l-.005 140.79c0 2.507-.986 4.873-2.776 6.664a9.371 9.371 0 0 1-6.664 2.776zm4.35-34.481c0-11.373-9.251-20.626-20.623-20.626-11.373 0-20.626 9.253-20.626 20.626 0 11.372 9.253 20.623 20.626 20.623 11.372 0 20.623-9.251 20.623-20.623zm85.576-338.962c4.385 0 8.796-1.183 12.757-3.419.077-.045.164-.065.244-.104.057-.036.102-.082.16-.116l90.093-52.883a4.111 4.111 0 0 1 1.494-.525l21.531-3.127c.194-.216.382-.44.581-.648h-59.986L113.421 90.86c-2.253 5.827-1.926 11.875.964 16.798 3.409 5.808 9.965 9.276 17.535 9.276zm120.976-51.06-14.24 2.067-86.818 50.962c.179.361.342.738.541 1.077 3.419 5.823 9.981 9.297 17.56 9.297 4.535 0 9.079-1.26 13.138-3.644l70.051-41.118c-2.127-6.319-2.181-12.833-.232-18.641zm199.405 92.376.004-104.558L338.073 7.037l-148.885-.005L84.279 49.739C72.225 54.65 65.866 67.125 70.106 77.548c2.96 7.274 10.659 11.975 19.614 11.975 3.384 0 6.73-.664 9.947-1.974l8.961-3.647c.025-.011.046-.027.07-.037l87.73-35.708a4.124 4.124 0 0 1 1.557-.304h80.487c.047 0 .09.012.136.013 7.727-.088 15.415 2.706 21.649 7.844l61.175 39.179a4.13 4.13 0 0 1-4.453 6.955l-61.39-39.316a4.563 4.563 0 0 1-.424-.311c-4.805-4.022-10.716-6.198-16.629-6.094h-.065c-.012 0-.023-.003-.035-.003-5.883.12-11.022 2.45-14.477 6.58-4.804 5.735-5.561 14.066-1.986 21.761.012.024.029.044.042.069 1.601 3.417 3.893 6.404 6.815 8.881l91.686 64.84h91.785zm50.258 31.309v-4.129l-32.557-.003c-5.208-.002-9.443-4.238-9.443-9.444l.005-140.79c0-5.205 4.233-9.439 9.441-9.439l32.553.001c5.206.001 9.442 4.237 9.442 9.443V175.99c0 2.507-.986 4.873-2.776 6.664a9.37 9.37 0 0 1-6.663 2.776zm4.346-133.454c0-11.372-9.253-20.623-20.626-20.623-11.372 0-20.623 9.251-20.623 20.623 0 11.373 9.251 20.626 20.623 20.626 11.373 0 20.626-9.252 20.626-20.626zM486.279 43.74c-6.817 0-12.365 5.547-12.365 12.365 0 6.819 5.548 12.367 12.365 12.367 6.818 0 12.368-5.548 12.368-12.367 0-6.818-5.549-12.365-12.368-12.365zm-322.62 236.132L256 372.213l92.34-92.34c10.969-10.97 17.072-25.552 17.186-41.063.113-15.487-5.764-29.956-16.547-40.739-10.671-10.672-24.986-16.55-40.311-16.55-15.672 0-30.408 6.104-41.492 17.188l-8.258 8.256a4.126 4.126 0 0 1-5.837 0l-8.257-8.256c-11.084-11.084-25.82-17.188-41.492-17.188-15.325 0-29.642 5.878-40.314 16.55-22.375 22.378-22.088 59.075.641 81.801z" fill="#ffffff" opacity="1" data-original="#000000"></path></g></svg>