<svg xmlns="http://www.w3.org/2000/svg" version="1.1" xmlns:xlink="http://www.w3.org/1999/xlink" width="512" height="512" x="0" y="0" viewBox="0 0 510 510" style="enable-background:new 0 0 512 512" xml:space="preserve"><g><path d="M213.727 302.704c11.74-9.988 22.785-26.092 25.637-36.422C227.418 256.81 202.217 235.29 180 206.3v121.838c5.7-4.774 11.628-9.006 17.432-13.138 5.802-4.13 11.283-8.031 16.295-12.296zM341.406 101.619c0-47.645-38.762-86.406-86.406-86.406s-86.406 38.762-86.406 86.406c0 62.016 62.817 119.352 86.394 138.683 23.562-19.365 86.418-76.831 86.418-138.683zM210 104.61c0-24.813 20.187-45 45-45s45 20.187 45 45-20.187 45-45 45-45-20.186-45-45zM218.553 408.498c37.706 3.695 76.131-5.362 108.209-25.52 1.09-.685 2.163-1.396 3.238-2.104V206.301c-22.795 29.744-48.739 51.63-60.276 60.703-3.098 24.899-26.692 50.156-36.557 58.55-5.998 5.104-12.271 9.568-18.337 13.887-8.239 5.866-16.021 11.406-22.368 17.963-8.41 8.688-15.101 22.068-11.092 32.379 5.651 14.532 29.889 17.998 37.183 18.715z" fill="#2f6953" opacity="1" data-original="#000000"></path><circle cx="255" cy="104.61" r="15" fill="#2f6953" opacity="1" data-original="#000000"></circle><path d="M360 155.515v202.583l2.952-2.421c11.099-9.113 22.575-18.538 35.056-26.803 33.834-22.409 68.511-29.688 97.641-20.5l.547.185c.619.222 6.361 2.352 13.804 7.153v-242.4L369.192 124.94c-1.958 10.516-5.131 20.74-9.192 30.575zM486.218 336.857c-27.311-8.371-56.583 7.052-71.646 17.027-11.197 7.415-21.584 15.945-32.581 24.976-7.126 5.852-14.402 11.81-21.991 17.518v97.561l150-58.928v-77.986c-8.669-13.684-21.698-19.333-23.782-20.168zM330 415.729c-29.156 15.446-61.929 23.577-94.9 23.577-6.495 0-12.993-.315-19.477-.952-13.827-1.357-25.81-4.647-35.623-9.662v66.096h150zM15.645 250.486c13.969-.023 26.263-11.813 32.346-18.84 4.938-5.704 9.365-12.017 14.052-18.7 5.239-7.47 10.656-15.194 17.104-22.444 18.014-20.253 42.378-34.438 68.725-40.396-3.05-8.157-5.463-16.564-7.064-25.166L0 73.311v177.176h15.645zM150 180.482c-18.558 5.095-35.596 15.521-48.438 29.958-5.297 5.955-9.99 12.646-14.958 19.731-4.913 7.006-9.994 14.25-15.933 21.11-16.276 18.801-35.81 29.173-55.002 29.204H0v154.524l150 58.928z" fill="#2f6953" opacity="1" data-original="#000000"></path></g></svg>