<svg xmlns="http://www.w3.org/2000/svg" version="1.1" xmlns:xlink="http://www.w3.org/1999/xlink" width="512" height="512" x="0" y="0" viewBox="0 0 297.605 273.098" style="enable-background:new 0 0 512 512" xml:space="preserve" class=""><g><path d="M99.487 193.818h30.12v2.5h-30.12zM231.797 193.818h65.809v2.5h-65.809zM230.186 102.477c2.74 3.769 4.954 7.078 6.717 10.026.569-9.474 2.209-15.257 3.832-18.579v26.104c.846 2.141 1.453 4.392 1.486 6.761.002 1.682-.327 3.225-.984 4.613-.144.311-.32.61-.502.905v48.788a7.187 7.187 0 0 0 14.374 0v-52.467h2.693v52.467a7.186 7.186 0 0 0 14.372 0V122.399c-16.395-17.607-27.602-37.038-30.311-41.928-.516.172-1.058.39-1.622.675-3.126 1.549-6.496 4.939-8.855 10.949-.992 2.506-1.846 5.486-2.508 9.049a6.64 6.64 0 0 1 1.308 1.333zM227.412 122.797l.012.497.265.056a35.752 35.752 0 0 0-.277-.553z" fill="#2f6953" opacity="1" data-original="#000000"></path><path d="M251.629 92.679c5.022 7.658 12.051 17.414 20.544 26.765V93.938c.345.706.692 1.517 1.035 2.463 1.638 4.541 3.016 11.992 3.011 23.619 0 3.205-.103 6.726-.329 10.592a4.649 4.649 0 0 0 4.647 4.922 4.651 4.651 0 0 0 4.637-4.379 192.5 192.5 0 0 0 .344-11.135c-.023-17.541-2.824-27.25-6.646-33.088-1.908-2.896-4.143-4.756-6.206-5.787-2.061-1.037-3.872-1.246-4.902-1.242l-.019.001c-.022-.001-.041-.007-.064-.007h-22.454c-.027 0-.053.008-.079.008h-.005a9.233 9.233 0 0 0-1.257.091c1.29 2.302 3.937 6.882 7.743 12.683z" fill="#2f6953" opacity="1" data-original="#000000"></path><circle cx="256.453" cy="63.507" r="13.077" fill="#2f6953" opacity="1" data-original="#000000"></circle><path d="M39.395 143.795v116.939c0 6.83 5.537 12.363 12.363 12.363 6.828 0 12.365-5.533 12.365-12.363v-90.272h4.635v90.272c0 6.83 5.537 12.363 12.363 12.363 6.828 0 12.365-5.533 12.365-12.363V110.774a43.715 43.715 0 0 1 1.78 4.238c2.818 7.813 5.189 20.631 5.181 40.639 0 5.514-.178 11.572-.564 18.225-.258 4.41 3.109 8.193 7.521 8.453a8.001 8.001 0 0 0 8.452-7.521c.404-6.934.592-13.299.592-19.156-.041-30.184-4.861-46.887-11.434-56.932-3.286-4.986-7.129-8.184-10.679-9.955-3.441-1.734-6.465-2.117-8.264-2.135-.103-.004-.207-.016-.313-.016h-4.694l-2.458 19.219-9.75-11.75 6.74-7.469H57.283l6.74 7.469-9.75 11.75-2.458-19.219h-4.692c-.299 0-.594.021-.884.055-3.542.048-7.181.253-10.706.348-.998.026-1.992.051-2.964.05-5.71.06-10.659-.75-12.957-2.174-1.189-.706-1.837-1.352-2.452-2.464-.594-1.12-1.156-2.938-1.16-6.025-.006-3.333.709-8.068 2.593-14.24a8.001 8.001 0 0 0-5.325-9.982c-.054-.017-.107-.025-.161-.04V31.295c2.185-3.506 7.76-9.767 17.499-3.961 26.387 15.729 28-21.002 28-21.002S44.772 14 34.772 5c-8.464-7.617-18.715-3.297-21.666-1.789V0H9.439v51.979a7.995 7.995 0 0 0-6.154 5.526C1.092 64.734.008 70.895 0 76.402c-.004 5.044.955 9.624 3.028 13.529 3.102 5.94 8.611 9.499 13.852 11.127 5.305 1.694 10.646 1.99 15.689 2.007.276 0 .549-.006.824-.008 2.069-.018 4.085-.083 6.001-.159v40.897z" fill="#2f6953" opacity="1" data-original="#000000"></path><path d="M70.109 80.613c10.682-1.753 18.83-11.021 18.83-22.197 0-12.428-10.072-22.5-22.5-22.5-12.426 0-22.5 10.072-22.5 22.5 0 11.176 8.15 20.444 18.83 22.197 1.195.196 2.42.303 3.67.303s2.476-.106 3.67-.303zM183.713 129.252c-1.008-10.066-3.264-16.472-6.074-20.768-1.908-2.896-4.143-4.756-6.205-5.785-2.063-1.039-3.873-1.246-4.904-1.242h-.002c-.027 0-.051-.008-.078-.008h-4.004c1.826 7.707 2.305 14.807 2.305 20.117 0 3.198-.172 5.745-.326 7.394v10.677H146.02v-10.663a79.9 79.9 0 0 1-.328-7.407c0-5.311.479-12.41 2.306-20.117h-4.003c-.027 0-.053.008-.079.008h-.005c-1.029-.004-2.842.201-4.902 1.242-3.127 1.549-6.496 4.941-8.855 10.949-2.387 6.033-3.99 14.754-3.998 27.924.002 3.404.109 7.105.348 11.137a4.65 4.65 0 0 0 4.637 4.377c.092 0 .184-.004.277-.008a4.65 4.65 0 0 0 4.369-4.914 179.367 179.367 0 0 1-.33-10.592c-.021-14.078 2.031-21.973 4.049-26.098v87.174a7.186 7.186 0 1 0 14.372 0v-52.467h2.693v52.467a7.187 7.187 0 0 0 14.374 0v-87.154c.344.705.691 1.515 1.033 2.459 1.639 4.543 3.016 11.992 3.012 23.621 0 3.203-.104 6.725-.328 10.592-.098 1.694.732 3.214 2.039 4.104.465-8.663 1.762-15.626 3.939-21.131.924-2.365 1.977-4.298 3.073-5.888z" fill="#2f6953" opacity="1" data-original="#000000"></path><path d="M147.434 121.566c0 2.666.123 4.863.253 6.447h15.07c.128-1.584.251-3.781.251-6.447 0-5.3-.497-12.426-2.363-20.117h-10.848c-1.866 7.692-2.363 14.818-2.363 20.117z" fill="#2f6953" opacity="1" data-original="#000000"></path><circle cx="155.222" cy="85.061" r="13.077" fill="#2f6953" opacity="1" data-original="#000000"></circle><circle cx="155.209" cy="134.139" r="3.269" fill="#2f6953" opacity="1" data-original="#000000"></circle><path d="M200.785 100.383h17.873c-2.31-3.702-6.407-6.174-11.093-6.174-7.222 0-13.077 5.854-13.077 13.076 0 7.223 5.855 13.078 13.077 13.078 4.868 0 9.107-2.666 11.358-6.613h-18.139v-13.367z" fill="#2f6953" opacity="1" data-original="#000000"></path><circle cx="211.925" cy="107.066" r="3.584" fill="#2f6953" opacity="1" data-original="#000000"></circle><path d="M240.221 126.816c-.041-2.982-1.073-5.83-2.92-9.504-1.873-3.654-4.68-8.084-8.732-13.658a4.648 4.648 0 0 0-6.496-1.025 4.648 4.648 0 0 0-1.024 6.494c3.872 5.32 6.445 9.428 7.975 12.424.98 1.875 1.495 3.33 1.733 4.244-1.322-.035-3.445-.441-5.498-.928-1.107-.256-2.211-.525-3.283-.746-.902-.18-1.75-.338-2.725-.396-.152-.016-.301-.047-.457-.047h-22.455c-.026 0-.051.008-.078.008h-.005c-1.032-.004-2.842.203-4.903 1.242-3.126 1.551-6.496 4.941-8.855 10.949-2.386 6.033-3.989 14.756-3.997 27.924 0 3.406.11 7.105.347 11.137a4.649 4.649 0 0 0 4.913 4.369 4.649 4.649 0 0 0 4.37-4.912 181.17 181.17 0 0 1-.33-10.594c-.02-14.076 2.033-21.969 4.048-26.096v87.172c0 3.971 3.218 7.186 7.186 7.186s7.186-3.215 7.186-7.186v-52.465h2.693v52.465a7.186 7.186 0 0 0 7.186 7.186 7.186 7.186 0 0 0 7.188-7.186v-90.924c.549.127 1.112.254 1.697.379 1.889.393 3.902.756 6.029.766 1.784-.025 3.813-.207 5.898-1.594a7.471 7.471 0 0 0 2.518-2.953c.572-1.211.793-2.502.791-3.731z" fill="#2f6953" opacity="1" data-original="#000000"></path></g></svg>