<svg xmlns="http://www.w3.org/2000/svg" version="1.1" xmlns:xlink="http://www.w3.org/1999/xlink" width="512" height="512" x="0" y="0" viewBox="0 0 64 64" style="enable-background:new 0 0 512 512" xml:space="preserve" class=""><g><path fill="#ffffff" d="M59.7 40.8c-2 0-3.6 1.6-3.6 3.6v4.9c0 2.3-1.9 4.2-4.2 4.2H12.2c-2.3 0-4.2-1.9-4.2-4.2v-4.7c0-2-1.6-3.6-3.6-3.6S.8 42.6.8 44.6v4.7c0 6.3 5.1 11.5 11.5 11.5h39.6c6.3 0 11.5-5.1 11.5-11.5v-4.9c-.1-2-1.8-3.6-3.7-3.6z" opacity="1" data-original="#303c42"></path><path fill="#ffffff" d="M47.5 27.1c-.6-1.3-1.7-1.9-3.3-1.9h-5.9c.1-1.1.3-2.6.5-4.2.4-3.3.8-7 1-9.2.3-4.6-3.2-8.5-7.7-8.5-2.1 0-4.1.8-5.6 2.3-1.6 1.6-2.5 3.8-2.3 6.2.2 2.2.7 6.4 1.1 9.8.2 1.4.3 2.7.4 3.7h-5.9c-1.9 0-2.8 1-3.2 1.9-.2.5-.3 1-.3 1.5 0 .7.3 1.5.8 2.2 3.8 5.4 7.7 10.2 11.9 14.5.9 1 2 1.5 3.1 1.5s2.2-.5 3.2-1.5c4.1-4.2 8-9 11.9-14.5.7-1.4.8-2.6.3-3.8z" opacity="1" data-original="#303c42"></path></g></svg>