<svg xmlns="http://www.w3.org/2000/svg" version="1.1" xmlns:xlink="http://www.w3.org/1999/xlink" width="512" height="512" x="0" y="0" viewBox="0 0 512 512" style="enable-background:new 0 0 512 512" xml:space="preserve"><g><path d="m425.684 68.778-9.864-55.94C414.381 4.68 406.601-.768 398.443.671h-.001c-8.158 1.439-13.606 9.219-12.167 17.377l3.477 19.721C349.718 13.235 303.379 0 256 0 187.62 0 123.333 26.629 74.98 74.98 26.628 123.333 0 187.62 0 256c0 8.284 6.716 15 15 15s15-6.716 15-15C30 131.383 131.383 30 256 30c41.481 0 82.063 11.486 117.203 32.801l-20.838 3.674c-8.158 1.438-13.606 9.218-12.167 17.377 1.439 8.158 9.218 13.606 17.377 12.167l55.942-9.865c8.158-1.438 13.605-9.218 12.167-17.376z" fill="#ffffff" opacity="1" data-original="#000000"></path><path d="m419.436 217.87-23.431-5.513a145.561 145.561 0 0 0-10.152-24.483l12.676-20.477a15 15 0 0 0-2.147-18.502l-33.275-33.276a15 15 0 0 0-18.503-2.147l-20.477 12.677a145.464 145.464 0 0 0-24.483-10.152l-5.513-23.431A15.001 15.001 0 0 0 279.53 81h-47.06a15 15 0 0 0-14.601 11.564l-5.513 23.431a145.547 145.547 0 0 0-24.483 10.152l-20.477-12.677a15.001 15.001 0 0 0-18.503 2.147l-33.275 33.276a15 15 0 0 0-2.147 18.502l12.676 20.477a145.596 145.596 0 0 0-10.152 24.483l-23.431 5.513A15.004 15.004 0 0 0 81 232.471v47.058a15 15 0 0 0 11.564 14.601l23.431 5.513a145.561 145.561 0 0 0 10.152 24.483l-12.676 20.477a14.998 14.998 0 0 0 2.147 18.501l33.275 33.277a15 15 0 0 0 18.503 2.147l20.477-12.677a145.464 145.464 0 0 0 24.483 10.152l5.513 23.431A15.001 15.001 0 0 0 232.47 431h47.059a15 15 0 0 0 14.601-11.564l5.513-23.431a145.547 145.547 0 0 0 24.483-10.152l20.477 12.677a15.001 15.001 0 0 0 18.503-2.147l33.275-33.277a14.998 14.998 0 0 0 2.147-18.501l-12.676-20.477a145.63 145.63 0 0 0 10.152-24.483l23.431-5.513a15 15 0 0 0 11.564-14.601v-47.058a14.998 14.998 0 0 0-11.563-14.603zM256 326c-38.66 0-70-31.34-70-70s31.34-70 70-70 70 31.34 70 70-31.34 70-70 70z" fill="#ffffff" opacity="1" data-original="#000000"></path><path d="m86.316 443.222 9.864 55.94c1.439 8.158 9.219 13.606 17.377 12.167h.001c8.158-1.439 13.606-9.219 12.167-17.377l-3.477-19.721C162.282 498.765 208.621 512 256 512c68.38 0 132.667-26.629 181.02-74.98C485.372 388.667 512 324.38 512 256c0-8.284-6.716-15-15-15s-15 6.716-15 15c0 124.617-101.383 226-226 226-41.481 0-82.063-11.486-117.203-32.801l20.838-3.674c8.158-1.438 13.606-9.218 12.167-17.377-1.439-8.158-9.218-13.606-17.377-12.167l-55.942 9.865c-8.158 1.438-13.605 9.218-12.167 17.376z" fill="#ffffff" opacity="1" data-original="#000000"></path></g></svg>