<svg xmlns="http://www.w3.org/2000/svg" version="1.1" xmlns:xlink="http://www.w3.org/1999/xlink" width="512" height="512" x="0" y="0" viewBox="0 0 48 48" style="enable-background:new 0 0 512 512" xml:space="preserve" class=""><g><g data-name="31 - 40"><path d="M41 17H23a5.006 5.006 0 0 0-5 5v12a5.006 5.006 0 0 0 5 5h10.086l4.353 4.354A1.5 1.5 0 0 0 40 42.293V39h1a5.006 5.006 0 0 0 5-5V22a5.006 5.006 0 0 0-5-5zm-4 9.5h-.559a8.973 8.973 0 0 1-2.661 5.434 6.949 6.949 0 0 0 2.72.566 1.031 1.031 0 0 1 1.036 1 .97.97 0 0 1-.965 1 9.127 9.127 0 0 1-4.551-1.23 8.932 8.932 0 0 1-4.52 1.23 1.031 1.031 0 0 1-1.036-1 .97.97 0 0 1 .965-1 7.128 7.128 0 0 0 2.811-.574 8.855 8.855 0 0 1-1.875-2.573 1 1 0 1 1 1.806-.857 6.974 6.974 0 0 0 1.823 2.352A6.96 6.96 0 0 0 34.42 26.5H27a1 1 0 0 1 0-2h4v-2a1 1 0 0 1 2 0v2h4a1 1 0 0 1 0 2zM16 14.417 14.371 18h2.893c.072-.1.149-.2.227-.3z" fill="#ffffff" opacity="1" data-original="#000000"></path><path d="M25 6H7a5.006 5.006 0 0 0-5 5v12a5.006 5.006 0 0 0 5 5h1v3.293a1.5 1.5 0 0 0 2.561 1.061L14.914 28H16v-6a6.956 6.956 0 0 1 .3-2h-2.838l-1.552 3.414a1 1 0 0 1-1.82-.828l5-11a1 1 0 0 1 1.82 0l2.117 4.657A6.952 6.952 0 0 1 23 15h7v-4a5.006 5.006 0 0 0-5-5z" fill="#ffffff" opacity="1" data-original="#000000"></path></g></g></svg>